<?xml version="1.0" encoding="UTF-8"?>
<svg width="64px" height="64px" viewBox="0 0 64 64" version="1.1" xmlns="http://www.w3.org/2000/svg" xmlns:xlink="http://www.w3.org/1999/xlink">
    <!-- Generator: Sketch 55.2 (78181) - https://sketchapp.com -->
    <title>compare-white</title>
    <desc>Created with Sketch.</desc>
    <defs>
        <path d="M15.037037,4.39393939 L4.2962963,4.39393939 C1.93333333,4.39393939 0,6.37121212 0,8.78787879 L0,39.5454545 C0,41.9621212 1.93333333,43.9393939 4.2962963,43.9393939 L15.037037,43.9393939 L15.037037,48.3333333 L19.3333333,48.3333333 L19.3333333,0 L15.037037,0 L15.037037,4.39393939 Z M14.5,36.25 L4.83333333,36.25 L14.5,24.1666667 L14.5,36.25 Z M34.5238095,4.83333333 L24.1666667,4.83333333 L24.1666667,9.12962963 L34.5238095,9.12962963 L34.5238095,37.0555556 L24.1666667,24.1666667 L24.1666667,43.5 L34.5238095,43.5 C36.802381,43.5 38.6666667,41.5666667 38.6666667,39.2037037 L38.6666667,9.12962963 C38.6666667,6.76666667 36.802381,4.83333333 34.5238095,4.83333333 Z" id="path-1"></path>
    </defs>
    <g id="Page-1" stroke="none" stroke-width="1" fill="none" fill-rule="evenodd">
        <g id="compare-white">
            <g id="Group">
                <g id="ic/compare" transform="translate(3.000000, 3.000000)">
                    <g id="ic_compare_24px" transform="translate(9.666667, 4.833333)">
                        <mask id="mask-2" fill="white">
                            <use xlink:href="#path-1"></use>
                        </mask>
                        <g id="Shape" fill-rule="nonzero"></g>
                        <g id="c/blue" mask="url(#mask-2)" fill="#51B2E9">
                            <g transform="translate(-9.666667, -4.833333)" id="Shape">
                                <rect x="0" y="0" width="58" height="58"></rect>
                            </g>
                        </g>
                    </g>
                </g>
            </g>
        </g>
    </g>
</svg>