<?xml version="1.0" encoding="UTF-8"?>
<svg width="75px" height="75px" viewBox="0 0 75 75" version="1.1" xmlns="http://www.w3.org/2000/svg" xmlns:xlink="http://www.w3.org/1999/xlink">
    <!-- Generator: Sketch 53.2 (72643) - https://sketchapp.com -->
    <title>compare-white</title>
    <desc>Created with Sketch.</desc>
    <g id="compare-white" stroke="none" stroke-width="1" fill="none" fill-rule="evenodd">
        <g id="compare-blue-w" transform="translate(8.000000, 4.000000)" fill-rule="nonzero">
            <g id="Layer-1">
                <path d="M57,44.168915 L40.5974026,44.168915 L40.5974026,42.5381232 L57,42.5381232 C57.6818182,42.5381232 58.3636364,41.7325513 58.3636364,40.9073314 L58.3636364,15.4041056 C58.3636364,14.6378299 57.7402597,14.028739 57,14.028739 L24.1753247,14.028739 C23.4155844,14.028739 22.8116883,14.657478 22.8116883,15.4041056 L22.8116883,21.357478 L21.1948052,21.357478 L21.1948052,15.4041056 C21.1948052,13.7536657 22.538961,12.3979472 24.1753247,12.3979472 L57,12.3979472 C58.6363636,12.3979472 59.9805195,13.7536657 59.9805195,15.4041056 L59.9805195,40.9073314 C59.9805195,42.6363636 58.5779221,44.168915 57,44.168915 Z" id="svg_4" fill="#FFFFFF"></path>
                <rect id="svg_5" fill="#FFFFFF" x="21.9935065" y="18.0958944" width="37.1688312" height="1.63079179"></rect>
                <path d="M35.9805195,54.7592375 L3.15584416,54.7592375 C1.55844156,54.7592375 0.175324675,53.2266862 0.175324675,51.497654 L0.175324675,25.9944282 C0.175324675,24.3439883 1.51948052,22.9882698 3.15584416,22.9882698 L35.9805195,22.9882698 C37.6168831,22.9882698 38.961039,24.3439883 38.961039,25.9944282 L38.961039,51.497654 C38.961039,53.2266862 37.5779221,54.7592375 35.9805195,54.7592375 Z M3.15584416,24.6190616 C2.3961039,24.6190616 1.79220779,25.2478006 1.79220779,25.9944282 L1.79220779,51.497654 C1.79220779,52.3228739 2.47402597,53.1284457 3.15584416,53.1284457 L35.9805195,53.1284457 C36.6623377,53.1284457 37.3441558,52.3228739 37.3441558,51.497654 L37.3441558,25.9944282 C37.3441558,25.2281525 36.7207792,24.6190616 35.9805195,24.6190616 L3.15584416,24.6190616 Z" id="svg_7" fill="#FFFFFF"></path>
                <rect id="svg_8" fill="#FFFFFF" x="0.993506494" y="28.686217" width="37.1688312" height="1.63079179"></rect>
                <path d="M16.3441558,20.5519062 L14.7272727,20.5519062 L14.7272727,0.982404692 C14.7272727,0.530498534 15.0974026,0.176832845 15.525974,0.176832845 L43.012987,0.176832845 C43.461039,0.176832845 43.8116883,0.550146628 43.8116883,0.982404692 L43.8116883,4.24398827 L42.1948052,4.24398827 L42.1948052,1.80762463 L16.3441558,1.80762463 L16.3441558,20.5519062 Z" id="svg_11" fill="#52B2E9"></path>
                <path d="M43.012987,9.13636364 C42.7207792,9.13636364 42.4675325,8.97917889 42.3116883,8.74340176 L39.8961039,4.67624633 C39.7402597,4.42082111 39.7402597,4.10645161 39.8766234,3.85102639 C40.012987,3.59560117 40.2857143,3.43841642 40.5779221,3.43841642 L45.4285714,3.43841642 C45.7207792,3.43841642 45.9935065,3.59560117 46.1298701,3.85102639 C46.2662338,4.10645161 46.2662338,4.42082111 46.1103896,4.67624633 L43.6948052,8.74340176 C43.5584416,8.97917889 43.2857143,9.13636364 43.012987,9.13636364 Z M42.0194805,5.06920821 L43.012987,6.73929619 L44.0064935,5.06920821 L42.0194805,5.06920821 L42.0194805,5.06920821 Z" id="svg_12" fill="#52B2E9"></path>
                <path d="M43.012987,66.9803519 L15.525974,66.9803519 C15.0779221,66.9803519 14.7272727,66.6070381 14.7272727,66.1747801 L14.7272727,62.9131965 L16.3441558,62.9131965 L16.3441558,65.3495601 L42.2142857,65.3495601 L42.2142857,46.6052786 L43.8311688,46.6052786 L43.8311688,66.155132 C43.8116883,66.6070381 43.461039,66.9803519 43.012987,66.9803519 L43.012987,66.9803519 Z" id="svg_14" fill="#52B2E9"></path>
                <path d="M17.961039,63.7187683 L13.1103896,63.7187683 C12.8181818,63.7187683 12.5454545,63.5615836 12.4090909,63.3061584 C12.2727273,63.0507331 12.2727273,62.7363636 12.4285714,62.4809384 L14.8441558,58.413783 C15.1363636,57.9225806 15.9350649,57.9225806 16.2272727,58.413783 L18.6428571,62.4809384 C18.7987013,62.7363636 18.7987013,63.0507331 18.6623377,63.3061584 C18.5064935,63.5615836 18.2532468,63.7187683 17.961039,63.7187683 Z M14.5324675,62.0879765 L16.5194805,62.0879765 L15.525974,60.4178886 L14.5324675,62.0879765 Z" id="svg_15" fill="#52B2E9"></path>
                <rect id="svg_16" fill="#FFFFFF" x="5.02597403" y="33.5785924" width="6.46753247" height="1.63079179"></rect>
                <rect id="svg_17" fill="#FFFFFF" x="27.6623377" y="40.9073314" width="6.46753247" height="1.63079179"></rect>
                <rect id="svg_18" fill="#FFFFFF" x="17.1428571" y="33.5785924" width="16.9675325" height="1.63079179"></rect>
                <rect id="svg_19" fill="#FFFFFF" x="5.02597403" y="40.9073314" width="16.9675325" height="1.63079179"></rect>
                <rect id="svg_20" fill="#FFFFFF" x="5.02597403" y="48.2360704" width="11.3181818" height="1.63079179"></rect>
                <rect id="svg_21" fill="#FFFFFF" x="22.8116883" y="48.2360704" width="11.3181818" height="1.63079179"></rect>
            </g>
        </g>
    </g>
</svg>