<?xml version="1.0" encoding="UTF-8"?>
<svg width="75px" height="75px" viewBox="0 0 75 75" version="1.1" xmlns="http://www.w3.org/2000/svg" xmlns:xlink="http://www.w3.org/1999/xlink">
    <!-- Generator: Sketch 53.2 (72643) - https://sketchapp.com -->
    <title>errors-flame-gray</title>
    <desc>Created with Sketch.</desc>
    <g id="errors-flame-gray" stroke="none" stroke-width="1" fill="none" fill-rule="evenodd">
        <g id="icon" transform="translate(34.000000, 29.000000)"></g>
        <g id="Group-2" transform="translate(17.000000, 10.000000)" fill-rule="nonzero">
            <g id="fire" transform="translate(21.000000, 28.000000) scale(-1, 1) translate(-21.000000, -28.000000) " fill="#999999">
                <path d="M41.8803438,32.7884173 C41.2388594,24.4375061 37.3503594,19.2024645 33.9199219,14.5849314 C30.7434531,10.3091826 28,6.6168186 28,1.16872235 C28,0.731238464 27.755,0.331378189 27.3665,0.130791826 C26.9767969,-0.0708882467 26.5085625,-0.0378582131 26.1542969,0.219710427 C21.0022969,3.90638716 16.7036406,10.1200802 15.2020313,16.0488619 C14.1595781,20.1765224 12.8524866,22.4823438 12.8331272,25.5470278 C8.07531469,24.5307528 8.16670313,19.7481163 8.15532813,19.6706816 C8.10173438,19.3015546 7.87620313,18.9802227 7.54807813,18.8047916 C7.2165625,18.6316574 6.82685938,18.6190797 6.49075,18.785433 C6.24126563,18.9061785 0.36684375,21.8911311 0.025046875,33.8102703 C0.00109375,34.2067401 0,34.6032098 0,35.0007733 C0,46.5793313 9.42101563,56 21,56 C32.5789844,56 42,46.5793313 42,35.0007733 C42,34.6134543 41.9601146,33.8760022 41.8803438,32.7884173 Z M28.7160947,52.976703 C24.5487726,54.5380129 18.172527,55.1812043 13.2842185,52.9768169 C6.34049805,49.9918516 1.46544863,42.3038495 1.46544863,34.3083132 C1.46544863,33.9438956 1.46430401,33.5807315 1.48925671,33.175861 C1.69906549,25.8900159 4.96222496,22.1840819 6.49075,20.5900113 C7.55661979,24.388364 8.15532813,25.9352272 13.2842185,27.1507502 C13.9490231,27.3083058 14.5051843,26.6070866 14.5051843,25.9352272 C14.5051843,21.8673787 16.2083783,19.4624553 17.3005743,15.1583849 C18.5405407,10.2821629 22.3593331,5.03425737 26.459704,1.46973363 C27.1405237,6.67595979 29.2296749,10.5741727 32.2236565,14.5849314 C35.7827367,19.3542667 39.7355644,24.6382266 40.3519421,32.6244189 L40.3937207,33.2060285 C40.4318365,33.7117462 40.4712115,34.2162105 40.4712115,34.7586207 C40.4708681,42.754157 35.6598152,49.9917377 28.7160947,52.976703 Z" id="Shape"></path>
            </g>
            <g id="Group" transform="translate(18.558140, 26.034483)" stroke="#52B2E9" stroke-width="1.54482759">
                <polygon id="Path" points="3.36194147 14.4827586 3.90697674 0 0 0 0.543254118 14.4827586"></polygon>
                <path d="M1.96567556,17.4137931 C0.809072061,17.4137931 0,18.2001146 0,19.3440634 C0,20.4467475 0.785483954,21.2758621 1.92164443,21.2758621 L1.96567556,21.2758621 C3.14429463,21.2758621 3.90697674,20.4467475 3.90697674,19.3440634 C3.88653372,18.2001146 3.12149279,17.4137931 1.96567556,17.4137931 Z" id="Path"></path>
            </g>
        </g>
    </g>
</svg>