<?xml version="1.0" encoding="UTF-8"?>
<svg width="75px" height="75px" viewBox="0 0 75 75" version="1.1" xmlns="http://www.w3.org/2000/svg" xmlns:xlink="http://www.w3.org/1999/xlink">
    <!-- Generator: Sketch 53.2 (72643) - https://sketchapp.com -->
    <title>errors-white</title>
    <desc>Created with Sketch.</desc>
    <g id="errors-white" stroke="none" stroke-width="1" fill="none" fill-rule="evenodd">
        <g id="iconfinder_5_1665429" transform="translate(13.000000, 11.000000)" fill-rule="nonzero">
            <path d="M25.0075195,51.7857143 C24.9022467,51.7857143 24.8120129,51.7550265 24.7067401,51.7089949 L4.76506513,39.955588 C4.58459748,39.8481809 4.46428571,39.6487105 4.46428571,39.4338963 L4.46428571,15.9270825 C4.46428571,15.7122683 4.56955851,15.5127979 4.76506513,15.4053908 L24.7067401,3.65198391 C24.8872077,3.54457679 25.1127923,3.54457679 25.2932599,3.65198391 L45.2349349,15.4053908 C45.4154025,15.5127979 45.5357143,15.7122683 45.5357143,15.9270825 L45.5357143,39.4338963 C45.5357143,39.6487105 45.4304415,39.8481809 45.2349349,39.955588 L25.2932599,51.7089949 C25.2030261,51.7550265 25.0977533,51.7857143 25.0075195,51.7857143 Z M5.63732542,39.0809872 L24.9924805,50.4814851 L44.3476356,39.0809872 L44.3476356,16.2799916 L24.9924805,4.87949377 L5.63732542,16.2799916 L5.63732542,39.0809872 Z" id="Shape" fill="#FFFFFF"></path>
            <path d="M20.8414398,53.5714286 C20.7346389,53.5714286 20.6430952,53.5413534 20.5515515,53.4962406 L0.305145532,41.9774436 C0.122058213,41.8721805 0,41.6766917 0,41.4661654 L0,18.443609 C0,18.112782 0.259373702,17.8571429 0.595033786,17.8571429 C0.930693871,17.8571429 1.19006757,18.112782 1.19006757,18.443609 L1.19006757,41.1353383 L21.1313281,52.4887218 C21.4212163,52.6541353 21.51276,53.0150376 21.3449299,53.2857143 C21.2533863,53.4661654 21.0397844,53.5714286 20.8414398,53.5714286 Z" id="Path" fill="#FFFFFF"></path>
            <path d="M49.4049662,35.7142857 C49.0693061,35.7142857 48.8099324,35.4585909 48.8099324,35.1276916 L48.8099324,12.4310127 L28.8686719,1.09019372 C28.5787837,0.92474411 28.48724,0.563763133 28.6550701,0.293027401 C28.8229001,0.0072507944 29.1890748,-0.0829944497 29.4637057,0.0824551645 L49.6948545,11.6037647 C49.8779418,11.7090508 50,11.9045821 50,12.1151544 L50,35.1577734 C50,35.4585909 49.725369,35.7142857 49.4049662,35.7142857 Z" id="Path" fill="#FFFFFF"></path>
            <g id="icon" transform="translate(21.000000, 14.000000)" stroke="#52B2E9" stroke-width="1.6">
                <g id="Group-2">
                    <polygon id="Path" points="6.88397538 20 8 0 0 0 1.11237748 20"></polygon>
                    <path d="M4.01871604,24 C2.24250352,24 1,25.2216066 1,26.9988128 C1,28.7119114 2.20627893,30 3.9510968,30 L4.01871604,30 C5.82873818,30 7,28.7119114 7,26.9988128 C6.96860535,25.2216066 5.79372107,24 4.01871604,24 Z" id="Path"></path>
                </g>
            </g>
        </g>
    </g>
</svg>