<?xml version="1.0" encoding="UTF-8"?>
<svg width="64px" height="64px" viewBox="0 0 64 64" version="1.1" xmlns="http://www.w3.org/2000/svg" xmlns:xlink="http://www.w3.org/1999/xlink">
    <!-- Generator: Sketch 55.2 (78181) - https://sketchapp.com -->
    <title>errors-atom-white</title>
    <desc>Created with Sketch.</desc>
    <defs>
        <path d="M30.7641667,0 L12.7358333,0 L0,12.7358333 L0,30.7641667 L12.7358333,43.5 L30.7641667,43.5 L43.5,30.7641667 L43.5,12.7358333 L30.7641667,0 Z M21.75,34.5583333 C20.01,34.5583333 18.6083333,33.1566667 18.6083333,31.4166667 C18.6083333,29.6766667 20.01,28.275 21.75,28.275 C23.49,28.275 24.8916667,29.6766667 24.8916667,31.4166667 C24.8916667,33.1566667 23.49,34.5583333 21.75,34.5583333 Z M24.1666667,24.1666667 L19.3333333,24.1666667 L19.3333333,9.66666667 L24.1666667,9.66666667 L24.1666667,24.1666667 Z" id="path-1"></path>
    </defs>
    <g id="Page-1" stroke="none" stroke-width="1" fill="none" fill-rule="evenodd">
        <g id="errors-atom-white">
            <g id="Group">
                <g id="ic/report" transform="translate(3.000000, 3.000000)">
                    <g id="ic_report_24px" transform="translate(7.250000, 7.250000)">
                        <mask id="mask-2" fill="white">
                            <use xlink:href="#path-1"></use>
                        </mask>
                        <g id="Shape" fill-rule="nonzero"></g>
                        <g id="c/blue" mask="url(#mask-2)" fill="#51B2E9">
                            <g transform="translate(-7.250000, -7.250000)" id="Shape">
                                <rect x="0" y="0" width="58" height="58"></rect>
                            </g>
                        </g>
                    </g>
                </g>
            </g>
        </g>
    </g>
</svg>