<?xml version="1.0" encoding="UTF-8"?>
<svg width="75px" height="76px" viewBox="0 0 75 76" version="1.1" xmlns="http://www.w3.org/2000/svg" xmlns:xlink="http://www.w3.org/1999/xlink">
    <!-- Generator: Sketch 53.2 (72643) - https://sketchapp.com -->
    <title>errors-atom-gray</title>
    <desc>Created with Sketch.</desc>
    <g id="errors-atom-gray" stroke="none" stroke-width="1" fill="none" fill-rule="evenodd" transform="translate(0.000000, 0.000000)">
        <g id="iconfinder_5_1665429" transform="translate(13.000000, 11.000000)" fill-rule="nonzero">
            <path d="M25.0075195,51.7857143 C24.9022467,51.7857143 24.8120129,51.7550265 24.7067401,51.7089949 L4.76506513,39.955588 C4.58459748,39.8481809 4.46428571,39.6487105 4.46428571,39.4338963 L4.46428571,15.9270825 C4.46428571,15.7122683 4.56955851,15.5127979 4.76506513,15.4053908 L24.7067401,3.65198391 C24.8872077,3.54457679 25.1127923,3.54457679 25.2932599,3.65198391 L45.2349349,15.4053908 C45.4154025,15.5127979 45.5357143,15.7122683 45.5357143,15.9270825 L45.5357143,39.4338963 C45.5357143,39.6487105 45.4304415,39.8481809 45.2349349,39.955588 L25.2932599,51.7089949 C25.2030261,51.7550265 25.0977533,51.7857143 25.0075195,51.7857143 Z M5.63732542,39.0809872 L24.9924805,50.4814851 L44.3476356,39.0809872 L44.3476356,16.2799916 L24.9924805,4.87949377 L5.63732542,16.2799916 L5.63732542,39.0809872 Z" id="Shape" fill="#999999"></path>
            <path d="M20.8414398,53.5714286 C20.7346389,53.5714286 20.6430952,53.5413534 20.5515515,53.4962406 L0.305145532,41.9774436 C0.122058213,41.8721805 0,41.6766917 0,41.4661654 L0,18.443609 C0,18.112782 0.259373702,17.8571429 0.595033786,17.8571429 C0.930693871,17.8571429 1.19006757,18.112782 1.19006757,18.443609 L1.19006757,41.1353383 L21.1313281,52.4887218 C21.4212163,52.6541353 21.51276,53.0150376 21.3449299,53.2857143 C21.2533863,53.4661654 21.0397844,53.5714286 20.8414398,53.5714286 Z" id="Path" fill="#999999"></path>
            <path d="M49.4049662,35.7142857 C49.0693061,35.7142857 48.8099324,35.4585909 48.8099324,35.1276916 L48.8099324,12.4310127 L28.8686719,1.09019372 C28.5787837,0.92474411 28.48724,0.563763133 28.6550701,0.293027401 C28.8229001,0.0072507944 29.1890748,-0.0829944497 29.4637057,0.0824551645 L49.6948545,11.6037647 C49.8779418,11.7090508 50,11.9045821 50,12.1151544 L50,35.1577734 C50,35.4585909 49.725369,35.7142857 49.4049662,35.7142857 Z" id="Path" fill="#999999"></path>
            <g id="Group" transform="translate(9.821429, 8.928571)" fill="#52B2E9">
                <path d="M5.5472488,28.7247088 C3.09509569,28.7247088 1.28588517,28.0196199 0.4784689,26.563458 C-1.49521531,22.9613734 3.61842105,16.3090129 12.1261962,11.4193746 L12.1261962,11.4193746 C16.1034689,9.13549969 20.1854067,7.61802575 23.6393541,7.12752912 C27.2727273,6.62170448 29.8145933,7.3421214 30.8014354,9.15082771 C31.7882775,10.959534 31.055622,13.5499693 28.7380383,16.4622931 C26.5400718,19.2213366 23.1309809,22.0110362 19.1537081,24.2795831 C14.0998804,27.2072348 9.13576555,28.7247088 5.5472488,28.7247088 Z M12.694378,12.46168 C4.23145933,17.3206622 0.0747607656,23.3752299 1.49521531,25.9656652 C2.91566986,28.5714286 10.1226077,28.09626 18.5855263,23.2372777 C22.4431818,21.0300429 25.7177033,18.3476395 27.8259569,15.6958921 C29.784689,13.2280809 30.5023923,11.0515021 29.7697368,9.71796444 C29.0370813,8.38442673 26.854067,7.86327406 23.7888756,8.29245861 C20.4844498,8.78295524 16.5370813,10.2544451 12.694378,12.46168 L12.694378,12.46168 Z" id="Shape"></path>
                <path d="M15.6997608,35.6683017 C11.6776316,35.6683017 8.47787081,27.8663397 8.43301435,17.8877989 L8.43301435,17.8877989 C8.4180622,13.2127529 9.09090909,8.81361128 10.3618421,5.48743102 C11.6925837,1.99264255 13.5316986,0.0459840589 15.5651914,0.0459840589 C15.5651914,0.0459840589 15.5801435,0.0459840589 15.5801435,0.0459840589 C17.5986842,0.0459840589 19.4527512,1.96198651 20.8133971,5.44144697 C22.0992823,8.7522992 22.8319378,13.1514408 22.84689,17.8264868 C22.8767943,27.8203556 19.7517943,35.6529736 15.6997608,35.6683017 C15.7147129,35.6683017 15.7147129,35.6683017 15.6997608,35.6683017 Z M9.61423445,17.8877989 C9.65909091,27.8203556 12.7990431,34.4727161 15.7147129,34.4727161 C15.7147129,34.4727161 15.7147129,34.4727161 15.7296651,34.4727161 C18.6453349,34.4573881 21.7254785,27.7743716 21.680622,17.8264868 C21.6656699,13.304721 20.9629187,9.0588596 19.72189,5.88595953 C18.5705742,2.92765175 17.0604067,1.24156959 15.5801435,1.24156959 C15.5801435,1.24156959 15.5801435,1.24156959 15.5651914,1.24156959 C14.0699761,1.24156959 12.5747608,2.95830779 11.4533493,5.91661557 C10.2422249,9.12017167 9.58433014,13.3660331 9.61423445,17.8877989 L9.61423445,17.8877989 Z" id="Shape"></path>
                <path d="M25.7625598,28.7400368 C25.1046651,28.7400368 24.3869617,28.6940527 23.6393541,28.5867566 C20.1854067,28.111588 16.1034689,26.578786 12.1261962,24.2949111 L12.1261962,24.2949111 C3.63337321,19.4206009 -1.48026316,12.7682403 0.4784689,9.15082771 C2.45215311,5.5487431 10.6608852,6.52973636 19.1537081,11.4193746 C23.1309809,13.7032495 26.5251196,16.4776211 28.7380383,19.2366646 C31.055622,22.1489884 31.7882775,24.7394237 30.8014354,26.54813 C30.0239234,27.9889638 28.2595694,28.7400368 25.7625598,28.7400368 Z M12.694378,23.2526058 C16.5520335,25.4598406 20.4844498,26.9313305 23.7888756,27.3911711 C26.8690191,27.8203556 29.0520335,27.2992029 29.7697368,25.9656652 C30.5023923,24.6321275 29.784689,22.4555487 27.8259569,19.9877376 C25.7177033,17.3359902 22.4282297,14.6689148 18.5855263,12.4463519 C10.1226077,7.58736971 2.91566986,7.12752912 1.49521531,9.71796444 C0.0747607656,12.3543838 4.23145933,18.3936235 12.694378,23.2526058 L12.694378,23.2526058 Z" id="Shape"></path>
                <path d="M15.6399522,21.2752912 C13.8008373,21.2752912 12.305622,19.7424893 12.305622,17.8571429 C12.305622,15.9717964 13.8008373,14.4389945 15.6399522,14.4389945 C17.479067,14.4389945 18.9742823,15.9717964 18.9742823,17.8571429 C18.9742823,19.7424893 17.479067,21.2752912 15.6399522,21.2752912 Z M15.6399522,15.63458 C14.4437799,15.63458 13.47189,16.6309013 13.47189,17.8571429 C13.47189,19.0833844 14.4437799,20.0797057 15.6399522,20.0797057 C16.8361244,20.0797057 17.8080144,19.0833844 17.8080144,17.8571429 C17.8080144,16.6309013 16.8361244,15.63458 15.6399522,15.63458 Z" id="Shape"></path>
            </g>
        </g>
    </g>
</svg>