<?xml version="1.0" encoding="UTF-8"?>
<svg width="75px" height="75px" viewBox="0 0 75 75" version="1.1" xmlns="http://www.w3.org/2000/svg" xmlns:xlink="http://www.w3.org/1999/xlink">
    <!-- Generator: Sketch 53.2 (72643) - https://sketchapp.com -->
    <title>errors-atom-white</title>
    <desc>Created with Sketch.</desc>
    <g id="errors-atom-white" stroke="none" stroke-width="1" fill="none" fill-rule="evenodd">
        <g id="iconfinder_5_1665429" transform="translate(13.000000, 11.000000)" fill-rule="nonzero">
            <path d="M25.5075064,52 C25.4024167,52 25.3123398,51.9688122 25.2072501,51.9220304 L5.30025632,39.9770865 C5.12010253,39.867929 5,39.6652081 5,39.4468931 L5,15.5570053 C5,15.3386904 5.10508971,15.1359694 5.30025632,15.026812 L25.2072501,3.08186809 C25.3874039,2.97271064 25.6125961,2.97271064 25.7927499,3.08186809 L45.6997437,15.026812 C45.8798975,15.1359694 46,15.3386904 46,15.5570053 L46,39.4468931 C46,39.6652081 45.8949103,39.867929 45.6997437,39.9770865 L25.7927499,51.9220304 C25.702673,51.9688122 25.5975833,52 25.5075064,52 Z M6.17099963,39.088233 L25.4924936,50.6745167 L44.8139876,39.088233 L44.8139876,15.9156655 L25.4924936,4.32938181 L6.17099963,15.9156655 L6.17099963,39.088233 Z" id="Shape" fill="#FFFFFF"></path>
            <path d="M20.424611,54 C20.3199461,54 20.2302333,53.9696842 20.1405205,53.9242105 L0.299042621,42.3132632 C0.119617048,42.2071579 0,42.0101053 0,41.7978947 L0,18.5911579 C0,18.2576842 0.254186228,18 0.583133111,18 C0.912079994,18 1.16626622,18.2576842 1.16626622,18.5911579 L1.16626622,41.4644211 L20.7087015,52.9086316 C20.992792,53.0753684 21.0825048,53.4391579 20.9180313,53.712 C20.8283185,53.8938947 20.6189887,54 20.424611,54 Z" id="Path" fill="#FFFFFF"></path>
            <path d="M49.4168669,36 C49.08792,36 48.8337338,35.7422596 48.8337338,35.4087132 L48.8337338,12.5304608 L29.2912985,1.09891527 C29.007208,0.932142062 28.9174952,0.568273238 29.0819687,0.29537162 C29.2464421,0.00730880075 29.6052933,-0.0836584053 29.8744316,0.0831148058 L49.7009574,11.6965948 C49.880383,11.8027232 50,11.9998188 50,12.2120756 L50,35.4390356 C50,35.7422596 49.7308616,36 49.4168669,36 Z" id="Path" fill="#FFFFFF"></path>
            <g id="Group" transform="translate(10.000000, 9.000000)" fill="#52B2E9">
                <path d="M5.50287081,28.9545064 C3.07033493,28.9545064 1.27559809,28.2437768 0.474641148,26.7759657 C-1.48325359,23.1450644 3.58947368,16.439485 12.0291866,11.5107296 L12.0291866,11.5107296 C15.9746411,9.20858369 20.0239234,7.67896996 23.4502392,7.18454936 C27.0545455,6.67467811 29.5760766,7.40085837 30.5550239,9.22403433 C31.5339713,11.0472103 30.807177,13.6583691 28.508134,16.5939914 C26.3277512,19.3751073 22.945933,22.1871245 19.0004785,24.4738197 C13.9870813,27.4248927 9.06267943,28.9545064 5.50287081,28.9545064 Z M12.592823,12.5613734 C4.19760766,17.4592275 0.0741626794,23.5622318 1.48325359,26.1733906 C2.8923445,28.8 10.0416268,28.32103 18.4368421,23.423176 C22.2636364,21.1982833 25.5119617,18.4944206 27.6033493,15.8214592 C29.5464115,13.3339056 30.2583732,11.1399142 29.5315789,9.79570815 C28.8047847,8.45150215 26.6392344,7.92618026 23.5985646,8.35879828 C20.3205742,8.85321888 16.4047847,10.3364807 12.592823,12.5613734 L12.592823,12.5613734 Z" id="Shape"></path>
                <path d="M15.5741627,35.9536481 C11.5842105,35.9536481 8.41004785,28.0892704 8.36555024,18.0309013 L8.36555024,18.0309013 C8.3507177,13.3184549 9.01818182,8.88412017 10.2789474,5.53133047 C11.5990431,2.00858369 13.423445,0.0463519313 15.4406699,0.0463519313 C15.4406699,0.0463519313 15.4555024,0.0463519313 15.4555024,0.0463519313 C17.4578947,0.0463519313 19.2971292,1.9776824 20.64689,5.48497854 C21.922488,8.8223176 22.6492823,13.2566524 22.6641148,17.9690987 C22.6937799,28.0429185 19.5937799,35.9381974 15.5741627,35.9536481 C15.5889952,35.9536481 15.5889952,35.9536481 15.5741627,35.9536481 Z M9.53732057,18.0309013 C9.58181818,28.0429185 12.6966507,34.7484979 15.5889952,34.7484979 C15.5889952,34.7484979 15.5889952,34.7484979 15.6038278,34.7484979 C18.4961722,34.7330472 21.5516746,27.9965665 21.507177,17.9690987 C21.4923445,13.4111588 20.7952153,9.13133047 19.5641148,5.93304721 C18.4220096,2.95107296 16.9239234,1.25150215 15.4555024,1.25150215 C15.4555024,1.25150215 15.4555024,1.25150215 15.4406699,1.25150215 C13.9574163,1.25150215 12.4741627,2.98197425 11.3617225,5.9639485 C10.1602871,9.19313305 9.5076555,13.4729614 9.53732057,18.0309013 L9.53732057,18.0309013 Z" id="Shape"></path>
                <path d="M25.5564593,28.9699571 C24.9038278,28.9699571 24.191866,28.9236052 23.4502392,28.8154506 C20.0239234,28.3364807 15.9746411,26.7914163 12.0291866,24.4892704 L12.0291866,24.4892704 C3.60430622,19.5759657 -1.46842105,12.8703863 0.474641148,9.22403433 C2.43253589,5.59313305 10.5755981,6.58197425 19.0004785,11.5107296 C22.945933,13.8128755 26.3129187,16.6094421 28.508134,19.3905579 C30.807177,22.3261803 31.5339713,24.9373391 30.5550239,26.760515 C29.7837321,28.2128755 28.0334928,28.9699571 25.5564593,28.9699571 Z M12.592823,23.4386266 C16.4196172,25.6635193 20.3205742,27.1467811 23.5985646,27.6103004 C26.654067,28.0429185 28.8196172,27.5175966 29.5315789,26.1733906 C30.2583732,24.8291845 29.5464115,22.6351931 27.6033493,20.1476395 C25.5119617,17.4746781 22.2488038,14.7862661 18.4368421,12.5459227 C10.0416268,7.64806867 2.8923445,7.18454936 1.48325359,9.79570815 C0.0741626794,12.4532189 4.19760766,18.5407725 12.592823,23.4386266 L12.592823,23.4386266 Z" id="Shape"></path>
                <path d="M15.5148325,21.4454936 C13.6904306,21.4454936 12.207177,19.9004292 12.207177,18 C12.207177,16.0995708 13.6904306,14.5545064 15.5148325,14.5545064 C17.3392344,14.5545064 18.822488,16.0995708 18.822488,18 C18.822488,19.9004292 17.3392344,21.4454936 15.5148325,21.4454936 Z M15.5148325,15.7596567 C14.3282297,15.7596567 13.3641148,16.7639485 13.3641148,18 C13.3641148,19.2360515 14.3282297,20.2403433 15.5148325,20.2403433 C16.7014354,20.2403433 17.6655502,19.2360515 17.6655502,18 C17.6655502,16.7639485 16.7014354,15.7596567 15.5148325,15.7596567 Z" id="Shape"></path>
            </g>
        </g>
    </g>
</svg>