<?xml version="1.0" encoding="UTF-8"?>
<svg width="75px" height="75px" viewBox="0 0 75 75" version="1.1" xmlns="http://www.w3.org/2000/svg" xmlns:xlink="http://www.w3.org/1999/xlink">
    <!-- Generator: Sketch 53.2 (72643) - https://sketchapp.com -->
    <title>errors-white</title>
    <desc>Created with Sketch.</desc>
    <g id="errors-white" stroke="none" stroke-width="1" fill="none" fill-rule="evenodd">
        <g id="iconfinder_5_1665429" transform="translate(10.000000, 8.000000)" fill-rule="nonzero">
            <path d="M28.0084218,58 C27.8905163,58 27.7894544,57.9656297 27.6715489,57.9140743 L5.33687294,44.7502586 C5.13474918,44.6299626 5,44.4065558 5,44.1659639 L5,17.8383324 C5,17.5977405 5.11790553,17.3743337 5.33687294,17.2540377 L27.6715489,4.09022197 C27.8736726,3.96992601 28.1263274,3.96992601 28.3284511,4.09022197 L50.6631271,17.2540377 C50.8652508,17.3743337 51,17.5977405 51,17.8383324 L51,44.1659639 C51,44.4065558 50.8820945,44.6299626 50.6631271,44.7502586 L28.3284511,57.9140743 C28.2273892,57.9656297 28.1094837,58 28.0084218,58 Z M6.31380447,43.7707057 L27.9915782,56.5392633 L49.6693519,43.7707057 L49.6693519,18.2335906 L27.9915782,5.46503302 L6.31380447,18.2335906 L6.31380447,43.7707057 Z" id="Shape" fill="#FFFFFF"></path>
            <path d="M23.3424126,60 C23.2227955,60 23.1202666,59.9663158 23.0177377,59.9157895 L0.341762995,47.0147368 C0.136705198,46.8968421 0,46.6778947 0,46.4421053 L0,20.6568421 C0,20.2863158 0.290498546,20 0.666437841,20 C1.04237714,20 1.33287568,20.2863158 1.33287568,20.6568421 L1.33287568,46.0715789 L23.6670874,58.7873684 C23.9917623,58.9726316 24.0942912,59.3768421 23.9063215,59.68 C23.8037926,59.8821053 23.5645585,60 23.3424126,60 Z" id="Path" fill="#FFFFFF"></path>
            <path d="M55.3335622,40 C54.9576229,40 54.6671243,39.7136218 54.6671243,39.3430146 L54.6671243,13.9227343 L32.3329126,1.22101697 C32.0082377,1.0357134 31.9057088,0.631414709 32.0936785,0.328190689 C32.2816481,0.00812088972 32.6917637,-0.0929537837 32.9993504,0.0923497842 L55.658237,12.9962164 C55.8632948,13.1141369 56,13.333132 56,13.5689729 L56,39.3767062 C56,39.7136218 55.6924133,40 55.3335622,40 Z" id="Path" fill="#FFFFFF"></path>
            <g id="Group" transform="translate(11.000000, 10.000000)" fill="#52B2E9">
                <path d="M6.21291866,32.1716738 C3.46650718,32.1716738 1.44019139,31.3819742 0.535885167,29.751073 C-1.67464115,25.7167382 4.05263158,18.2660944 13.5813397,12.7896996 L13.5813397,12.7896996 C18.0358852,10.2317597 22.6076555,8.53218884 26.4760766,7.98283262 C30.5454545,7.41630901 33.3923445,8.22317597 34.4976077,10.248927 C35.6028708,12.2746781 34.7822967,15.1759657 32.1866029,18.4377682 C29.7248804,21.527897 25.9066986,24.6523605 21.4521531,27.193133 C15.791866,30.472103 10.2320574,32.1716738 6.21291866,32.1716738 Z M14.2177033,13.9570815 C4.73923445,19.3991416 0.0837320574,26.1802575 1.67464115,29.0815451 C3.26555024,32 11.3373206,31.4678112 20.8157895,26.0257511 C25.1363636,23.5536481 28.8038278,20.5493562 31.1650718,17.5793991 C33.3588517,14.8154506 34.1626794,12.3776824 33.3421053,10.8841202 C32.5215311,9.39055794 30.076555,8.80686695 26.6435407,9.28755365 C22.9425837,9.83690987 18.5215311,11.4849785 14.2177033,13.9570815 L14.2177033,13.9570815 Z" id="Shape"></path>
                <path d="M17.5837321,39.9484979 C13.0789474,39.9484979 9.49521531,31.2103004 9.44497608,20.0343348 L9.44497608,20.0343348 C9.42822967,14.7982833 10.1818182,9.87124464 11.6052632,6.14592275 C13.0956938,2.23175966 15.1555024,0.0515021459 17.4330144,0.0515021459 C17.4330144,0.0515021459 17.4497608,0.0515021459 17.4497608,0.0515021459 C19.7105263,0.0515021459 21.7870813,2.19742489 23.3110048,6.0944206 C24.7511962,9.80257511 25.5717703,14.7296137 25.5885167,19.9656652 C25.6220096,31.1587983 22.1220096,39.9313305 17.5837321,39.9484979 C17.6004785,39.9484979 17.6004785,39.9484979 17.5837321,39.9484979 Z M10.7679426,20.0343348 C10.8181818,31.1587983 14.3349282,38.6094421 17.6004785,38.6094421 C17.6004785,38.6094421 17.6004785,38.6094421 17.6172249,38.6094421 C20.8827751,38.5922747 24.3325359,31.1072961 24.2822967,19.9656652 C24.2655502,14.9012876 23.4784689,10.1459227 22.0885167,6.59227468 C20.7990431,3.27896996 19.1076555,1.39055794 17.4497608,1.39055794 C17.4497608,1.39055794 17.4497608,1.39055794 17.4330144,1.39055794 C15.7583732,1.39055794 14.0837321,3.31330472 12.8277512,6.62660944 C11.4712919,10.2145923 10.7344498,14.9699571 10.7679426,20.0343348 L10.7679426,20.0343348 Z" id="Shape"></path>
                <path d="M28.854067,32.1888412 C28.1172249,32.1888412 27.3133971,32.1373391 26.4760766,32.0171674 C22.6076555,31.4849785 18.0358852,29.7682403 13.5813397,27.2103004 L13.5813397,27.2103004 C4.06937799,21.751073 -1.65789474,14.3004292 0.535885167,10.248927 C2.74641148,6.21459227 11.9401914,7.31330472 21.4521531,12.7896996 C25.9066986,15.3476395 29.708134,18.4549356 32.1866029,21.5450644 C34.7822967,24.806867 35.6028708,27.7081545 34.4976077,29.7339056 C33.6267943,31.3476395 31.6507177,32.1888412 28.854067,32.1888412 Z M14.2177033,26.0429185 C18.5382775,28.5150215 22.9425837,30.1630901 26.6435407,30.6781116 C30.0933014,31.1587983 32.5382775,30.5751073 33.3421053,29.0815451 C34.1626794,27.5879828 33.3588517,25.1502146 31.1650718,22.3862661 C28.8038278,19.416309 25.1196172,16.4291845 20.8157895,13.9399142 C11.3373206,8.49785408 3.26555024,7.98283262 1.67464115,10.8841202 C0.0837320574,13.8369099 4.73923445,20.6008584 14.2177033,26.0429185 L14.2177033,26.0429185 Z" id="Shape"></path>
                <path d="M17.5167464,23.8283262 C15.4569378,23.8283262 13.7822967,22.111588 13.7822967,20 C13.7822967,17.888412 15.4569378,16.1716738 17.5167464,16.1716738 C19.576555,16.1716738 21.2511962,17.888412 21.2511962,20 C21.2511962,22.111588 19.576555,23.8283262 17.5167464,23.8283262 Z M17.5167464,17.5107296 C16.1770335,17.5107296 15.0885167,18.6266094 15.0885167,20 C15.0885167,21.3733906 16.1770335,22.4892704 17.5167464,22.4892704 C18.8564593,22.4892704 19.9449761,21.3733906 19.9449761,20 C19.9449761,18.6266094 18.8564593,17.5107296 17.5167464,17.5107296 Z" id="Shape"></path>
            </g>
        </g>
    </g>
</svg>