<?xml version="1.0" encoding="UTF-8"?>
<svg width="75px" height="75px" viewBox="0 0 75 75" version="1.1" xmlns="http://www.w3.org/2000/svg" xmlns:xlink="http://www.w3.org/1999/xlink">
    <!-- Generator: Sketch 53.2 (72643) - https://sketchapp.com -->
    <title>jenkins-white</title>
    <desc>Created with Sketch.</desc>
    <g id="jenkins-white" stroke="none" stroke-width="1" fill="none" fill-rule="evenodd">
        <g id="g3393" transform="translate(38.000000, 38.000000) scale(1, -1) translate(-38.000000, -38.000000) translate(14.000000, 5.000000)">
            <path d="M28.3971741,27.560061 C26.7529293,25.6794054 25.1452271,24.8349162 23.5740676,25.0265933 C22.0029081,25.2182705 21.6079412,28.0213144 22.3891668,33.4357252 L28.6673221,31.0302438 L31.1009841,31.4814224 L35.5292195,34 C37.3123773,30.4337994 37.4741247,28.3837585 36.0144618,27.8498773 C34.5547989,27.3159961 32.9551925,27.499966 31.2156425,28.4017869 L28.3971741,27.560061 Z" id="Path-2" fill="#52B2E9"></path>
            <path d="M25.8621683,56.592574 C23.3996791,57.1444741 22.1760779,55.6009275 21.4296497,54 C20.7631525,54.1554501 21.0283691,55.02764 21.1967145,55.4720813 C21.6374863,56.6384788 23.4137734,58.1911541 24.8651328,57.9806705 C25.4896996,57.8901652 26.3348962,57.3406125 25.8621683,56.592574" id="path100" fill="#FFFFFF"></path>
            <path d="M37.4146116,54 C37.4477032,53.9985968 37.4812576,53.9974276 37.5143492,53.9960244 C37.9894335,52.9986178 38.4006487,51.9420451 39,51.0615678 C38.598504,50.1165455 35.9597384,49.2802675 36.0004665,50.9771448 C36.571123,51.2292443 37.5562344,51.0285937 38.0620962,51.3506169 C37.7695942,52.1618721 37.3475028,52.8524563 37.4146116,54" id="path102" fill="#FFFFFF"></path>
            <path d="M26.9028839,54 C27.4043612,53.0851133 27.567573,52.1238547 28.2804018,51.4323735 C28.6014194,51.1210917 29.2256917,50.741661 28.9162586,49.8759645 C28.8439202,49.6717739 28.3154126,49.2165083 28.0103558,49.1270948 C26.8959332,48.7996725 24.2991665,49.0594583 25.1785538,50.4421644 C26.1001856,50.3993791 27.3389735,49.8465017 28.0278612,50.5123629 C27.4988387,51.3539766 26.5557113,53.019014 26.9028839,54" id="path104" fill="#FFFFFF"></path>
            <path d="M36.5841621,44.1231761 C34.7318097,42.9890654 32.6663146,41.7558183 29.6311621,42.0418514 C28.9826399,42.5792471 28.7353943,43.7751149 29.3654442,44.5649564 C29.6933998,44.0275608 29.4873618,43.0391754 30.4013178,42.8904707 C32.1235111,42.6095839 34.1279053,43.8945662 35.3666908,44.34366 C36.1348572,45.5779906 35.3004745,46.0319599 34.6084711,46.8264061 C33.1917824,48.4540323 31.2914019,50.4714329 31.3604601,52.908132 C31.9331036,53.3038654 31.9825527,52.3041037 32.0646837,52.1220826 C32.804431,50.4719746 34.6661617,48.3616674 36.0248756,46.9493787 C36.358515,46.6015884 36.9078548,46.267883 36.9689557,46.0379189 C37.1451537,45.3691538 36.5105568,44.567936 36.5841621,44.1231761" id="path106" fill="#FFFFFF"></path>
            <path d="M13.9416337,45.0743259 C13.468834,45.3702541 13.3562924,46.6737593 12.8012213,46.7108138 C12.0079684,46.7636037 12.1526085,45.0197594 12.155779,44 C11.6097566,44.5436348 11.5137387,46.2174309 11.9148664,47.0770439 C11.4577109,47.3232277 11.2535716,46.8054803 11,46.6229998 C11.3258916,49.2193507 14.4632409,47.8272701 13.9416337,45.0743259" id="path108" fill="#FFFFFF"></path>
            <path d="M26.6179536,41 C27.6243202,38.0438245 31.0831848,38.384149 34,38.465707 C33.8715996,38.0819049 33.5932707,37.6285387 33.2472818,37.4645233 C32.312599,37.0195528 29.7345967,36.6819269 28.4370099,37.4882111 C27.6140687,38.0000471 27.0853463,39.1565507 26.6344586,39.8345011 C26.4167162,40.1619322 25.3324893,40.9982009 26.6179536,41" id="path114" fill="#FFFFFF"></path>
            <path d="M43,19 C41.5064775,18.6401282 40.4570457,16.8930357 39,17.0051646 C39.8007527,18.3638479 41.2039517,18.9365834 43,19" id="path118" fill="#FFFFFF"></path>
            <path d="M44,16.4129654 C42.7456186,16.2024398 41.2722798,15.8796592 40,16.0459559 C40.602282,17.507926 42.922813,17.0034895 44,16.4129654" id="path120" fill="#FFFFFF"></path>
            <path d="M44,14.7874158 C42.7474158,14.7638246 41.1905645,14.7855266 40,14.872358 C40.7042142,15.529848 43.1876491,15.1163336 44,14.7874158" id="path122" fill="#FFFFFF"></path>
            <path d="M32.4826634,9.66019562 C32.4243977,8.26709793 32.619232,6.0330359 32.6843526,4.57163251 C33.6073772,4.57038914 34.0031098,4.77427452 34.6920167,5.00739219 C34.7697922,6.72693928 34.1494333,8.3178378 33.9706813,9.88796947 C33.6060589,9.98561329 32.9366618,9.63003741 32.4826634,9.66019562 L32.4826634,9.66019562 Z M18.1102405,17.5830221 C18.7188936,11.9685685 19.6004466,7.24891442 21.2173346,2.27720379 C24.8058991,1.18388665 29.1319868,1.08860787 32.3039115,2.07517817 C31.7215175,4.88123035 31.9759359,8.29746778 31.6355689,11.2919135 C31.3790414,13.5426155 31.5098098,15.8071796 31.1581061,18.1034364 C27.3146751,18.9057506 21.882118,18.2909993 18.1102405,17.5830221 L18.1102405,17.5830221 Z M32.0668937,18.0681989 C32.0344653,15.6569177 32.1744613,13.2783872 32.3579589,10.8640902 C33.2807198,11.0030825 33.906879,11.0958852 34.7642557,11.2844798 C34.4858455,13.6087519 34.5201195,16.2241301 33.953017,18.2801529 C33.2975931,18.2738567 32.7204721,18.2877983 32.0668937,18.0681989 L32.0668937,18.0681989 Z M36.747928,18.4568694 C36.310012,18.5576084 35.8001207,18.4607847 35.3817146,18.4526367 C35.5783944,16.4870357 36.0555937,14.3180519 36.2235361,12.254807 C36.8818601,12.2342518 37.2335639,12.5458073 37.7750927,12.6505938 C37.8040938,14.4617002 37.6174324,16.9568953 36.747928,18.4568694 L36.747928,18.4568694 Z M43.8357863,11.9588597 C45.2080636,12.2932455 46.0709769,13.9797244 45.6871084,15.7116786 C45.4295262,16.8756798 44.9707822,19.0674938 44.4798734,19.8121371 C44.1170966,20.3629212 43.1334335,21.0840199 42.3480321,20.5793196 C41.0704037,19.7584079 38.819658,19.5201051 37.8879332,18.5264185 C38.3551138,16.9655988 38.5001191,14.8217469 38.6928443,12.8440561 C40.2889571,12.7442165 42.2528559,13.2847892 43.5803134,12.7111483 C42.6535978,12.4099366 41.4511085,12.4075557 40.6504157,11.9685685 C41.304785,11.6514311 42.8368317,11.7155041 43.8357863,11.9588597 L43.8357863,11.9588597 Z M31.0745303,20.332763 C30.1106406,22.607327 29.235336,24.9643764 27.7960926,26.7972019 C26.4016954,25.8588583 24.8661685,24.9763603 24.4742852,23.2724214 C26.470217,22.1393192 28.7971564,21.0216136 31.0745303,20.332763 Z M33.4505078,27.3762925 C33.3592863,25.1015168 33.1006496,22.1176265 32.496373,20.3348265 C33.9377256,22.1764085 35.1001407,24.3207896 36.3150213,26.4086372 C35.7972206,27.2426969 34.7146902,27.969933 33.4505078,27.3762925 L33.4505078,27.3762925 Z M30.7571005,28.3365934 C30.2110897,28.3955871 29.7476001,27.70671 29.0376015,28.0045885 C28.8749319,27.8241683 28.7270265,27.6286691 28.5611932,27.4524816 C30.1293595,25.5561915 30.8419945,22.8657882 32.0531841,20.6373081 C32.7030715,22.777959 32.628196,25.1232096 32.7713558,27.4596244 C31.8783869,27.402747 31.3829961,28.2699279 30.7571005,28.3365934 Z M29.0252101,30.6302046 C28.9669444,29.9807449 29.1174862,29.7683147 29.2477273,29.0238831 C31.3753503,28.3564343 31.0038732,31.9539914 29.0252101,30.6302046 Z M26.6658423,31.4074399 C25.7490662,31.9100768 24.3718323,32.4574218 23.1876928,32.6841375 C21.719923,32.9658787 21.8574143,30.6751774 21.9197139,29.3085343 C21.9686202,28.2265424 22.5293952,27.0823822 22.7729513,26.363585 C22.8872682,26.0279295 22.9130264,25.6718245 23.1990032,25.6051854 C23.7044653,25.4869599 25.3718152,26.1559696 25.8469052,26.4159651 C26.8517127,26.9657175 27.6313139,27.8387184 28.4847359,28.4249516 C28.495809,28.7101319 28.5066185,28.9950476 28.5179553,29.2802279 C28.0049002,29.5368372 27.4119604,29.7188447 26.6587239,29.7519129 C27.1696698,30.009845 27.9213244,30.0061413 28.3869232,30.3130143 C28.3914052,30.4272981 28.3961508,30.5413173 28.4001055,30.6545429 C27.5501109,30.7201502 27.22609,31.1000378 26.6658423,31.4074399 L26.6658423,31.4074399 Z M17.9092104,33.0034442 C17.1483281,32.2283253 20.0432928,31.1717297 20.9650254,31.1148524 C20.9598843,31.6053201 21.2435938,32.067746 21.1864353,32.4195918 C20.0916982,32.6124456 18.6529821,32.4851991 17.9092104,33.0034442 L17.9092104,33.0034442 Z M27.2822466,32.6394293 C27.2785556,32.5637692 27.1802156,32.591282 27.1641332,32.5296428 C28.1430507,31.7619312 28.8701863,31.6032038 30.2026531,31.6693402 C30.8035022,32.1068988 31.3363307,32.6185302 31.9619626,33.0283115 C30.5216647,32.8992132 28.7085713,32.0016096 27.2822466,32.6394293 L27.2822466,32.6394293 Z M35.885542,30.0217495 C35.8444132,30.8828458 35.6189959,32.6537148 35.0885402,32.9637623 C33.9751633,33.6158675 31.995973,31.6471183 31.1575788,31.346859 C31.2488003,31.0833714 31.3993421,30.8746449 31.4109425,30.5378782 C31.9068606,30.6603629 32.5106099,30.5765019 32.9403528,30.3646008 C32.4433802,30.3087816 31.8923601,30.3124853 31.5635936,30.0749232 C31.4431074,29.7254583 31.5931219,29.2492761 31.5129735,28.7640992 C32.6925256,28.4302426 34.0397565,28.2524678 35.5309382,28.2085533 C35.8209487,28.5868536 35.919816,29.3074761 35.885542,30.0217495 L35.885542,30.0217495 Z M16.6282601,32.2537216 C16.3893177,32.4246182 14.772957,34.5348993 14.5515208,34.4473346 C11.6267114,33.2899472 8.89188538,31.2886589 6.44801903,29.3958344 C8.77809578,24.3789632 9.71867916,18.2325082 9.88488158,12.308351 C12.5540861,11.0556742 14.8985843,9.24983232 18.5206318,9.06126414 C18.1014874,12.0368742 17.7188844,14.6916433 17.4809703,17.4931294 C16.5708907,17.8780699 15.2652104,17.4756694 14.4135285,17.6124925 C14.4063046,18.6423424 15.7142522,18.0634635 15.8231908,18.7560177 C15.9052901,19.2798447 15.1035427,19.3195265 15.3646049,20.14438 C16.0304165,19.9015271 16.3800638,19.3651078 17.0901415,19.1636827 C17.7389742,20.5879967 17.0810721,23.108112 17.1745873,24.2985677 C17.1923043,24.5220824 17.2858195,25.5368797 17.7847959,25.358814 C18.2264029,25.2012241 17.759565,22.6599452 17.8079704,21.533245 C17.852052,20.4951941 17.6830285,19.490767 18.1019884,18.8391115 C21.6019941,19.3171456 25.158631,19.626135 28.9455891,19.7303925 C28.1124678,20.08909 27.1227408,20.428555 26.0376267,21.0422746 C25.4493798,21.3750202 23.5951049,22.0673892 23.4253697,22.6280145 C23.1545262,23.5213589 24.1359747,23.9972237 24.303838,24.7630835 C22.53712,23.7962483 22.1924293,25.6898136 21.7744977,27.0313249 C21.395823,28.2463833 21.180266,29.1540396 21.0873572,29.8548212 C19.5654344,30.582851 17.9382378,31.3201398 16.6282601,32.2537216 L16.6282601,32.2537216 Z M34.3397857,34.192048 C36.7766654,35.3777419 37.2158996,29.7606429 36.2607102,27.9511503 C36.408352,27.411477 36.9161341,27.2048668 37.1233599,26.71969 C35.7634739,24.2753141 34.2530461,21.9936074 32.8654774,19.5779877 C33.8976514,20.222712 35.3719597,19.6933032 36.5865767,20.1758874 C37.0305565,20.3520749 37.3519409,21.371925 37.6880895,22.187784 C38.612696,24.4324014 39.5834404,27.2622733 40.0152925,29.4042998 C40.1128415,29.8923867 40.3785967,30.9558604 40.3190127,31.3902445 C40.2127634,32.1680088 39.1610796,32.7447185 38.6261419,33.2256626 C37.6406333,34.114007 37.0200106,34.8957396 35.992055,35.7264131 C35.5752307,35.1089635 34.6806799,34.6941558 34.3397857,34.192048 L34.3397857,34.192048 Z M11.055127,55.8763305 C9.893951,54.594342 10.1370062,52.192267 10.2775823,50.4833017 C12.3764415,51.8081466 15.1622303,50.3785416 15.1359712,48.1251413 C16.1380368,48.1518604 15.5103221,49.3809397 15.3290655,50.172725 C14.7367057,52.7589239 16.3270182,55.5686638 15.4011726,57.9337024 C13.6035289,57.7969323 12.1266897,57.0601725 11.055127,55.8763305 L11.055127,55.8763305 Z M19.3635871,63.316943 C16.7348522,62.5693368 13.3658257,60.6527032 12.2856154,58.2831673 C13.1220587,58.4051229 13.7027126,58.828396 14.5278454,58.8807761 C14.8396858,58.9011461 15.2482316,58.7495614 15.6066319,58.8389778 C16.3208489,59.0167525 16.9236227,60.6236032 17.462436,61.2214765 C17.9876715,61.8053288 18.6189717,62.0547954 19.0510084,62.5870614 C19.3285749,62.7214506 19.7389662,62.7121915 19.7547322,63.1304383 C19.6344306,63.2595366 19.5077487,63.3579476 19.3635871,63.316943 L19.3635871,63.316943 Z M33.0476568,62.6137805 C30.3191846,64.1584629 25.7008717,65.3203476 22.7984986,63.8685208 C20.4565842,62.6968479 17.2909606,60.7582569 16.2116731,58.3016855 C17.219908,55.9310914 15.9130149,53.7589066 15.8295973,51.3520698 C15.7853048,50.071404 16.4305256,48.9534339 16.4799592,47.559278 C16.1349521,46.9881238 15.0808691,46.9177547 14.3512026,46.9569074 C14.10559,48.1902195 13.6756097,49.576439 12.4099245,49.7155901 C10.6189774,49.9121475 9.30950061,48.4248716 9.22813946,46.8706655 C9.13185595,45.0429193 10.6272032,42.0136064 12.7466795,42.2239202 C13.5654321,42.3051357 13.7665676,43.1286665 14.6586401,43.1202011 C15.1421405,42.1522283 13.912812,41.8482653 13.7863411,41.1559492 C13.7533853,40.9771163 13.888293,40.2781865 13.966754,39.9504144 C14.3517298,38.3544102 15.2099239,36.2888373 16.0546192,35.0737789 C17.1267092,33.5325356 19.2330032,33.3002645 21.499014,33.1492089 C21.9037369,34.0240615 23.3946813,33.9521051 24.366164,33.723273 C23.2019033,34.1859635 22.1195048,35.3076373 21.2224757,36.3004773 C20.1920945,37.4396111 19.1483465,38.6615477 19.0956173,40.150411 C21.0427746,37.4398757 22.6514369,35.0727207 26.1921232,33.8804132 C28.8712409,32.9788414 32.0001913,34.2936336 34.0587391,35.7441377 C34.912952,36.3470374 35.4228433,37.3036346 36.03002,38.1792809 C38.3018574,41.4583249 39.3619778,46.1386676 39.1289148,50.6750973 C39.0329476,52.5459646 39.037166,54.4104827 38.4115341,55.6691912 C37.7576921,56.9853061 35.5462296,58.162799 34.2517279,56.9723433 C34.0118101,58.2522155 35.3281944,59.0437362 36.8744781,58.5831621 C35.7719106,60.0109153 34.6147684,61.7264942 33.0476568,62.6137805 L33.0476568,62.6137805 Z M38.1310148,20.4009629 C40.2631197,21.464516 44.2468104,23.2636385 45.5834955,20.3970476 C46.0767771,19.3403992 46.65548,17.554213 46.910953,16.4634646 C47.2718843,14.9246552 46.5197023,11.6902665 44.9433631,11.1738997 C43.5510487,10.7178758 41.9264622,10.7456531 40.2494102,11.0836896 C40.0519393,11.2485016 39.8320586,11.5357982 39.678353,11.835264 C38.480873,11.8818769 37.3595866,11.7707677 36.4136249,11.2768344 C36.5032645,10.3882254 35.9042609,10.2456088 35.3426949,10.0625961 C34.926398,8.40630188 36.1755526,6.24332328 35.876578,4.73303184 C35.6632885,3.65707155 34.344004,3.49069875 33.3743141,3.28940592 C33.3426766,2.69147972 33.4167611,2.19236398 33.4829363,1.68652349 C33.26121,0.86674132 32.2667374,0.400066821 31.3244667,0.28577514 C28.2242537,-0.0883094193 23.5170394,-0.256337476 20.5350452,0.819620439 C19.7029258,2.86766716 19.0473965,5.35865598 18.3542976,7.69729293 C15.4459661,7.38563164 13.0937431,8.95647758 10.8762432,9.98561329 C10.1084797,10.34275 9.04638192,10.5394926 8.75956147,11.1527096 C8.48149406,11.7464031 8.59528366,12.8842406 8.52628751,13.9590633 C8.35069929,16.7042541 8.200342,19.3520921 7.47787293,22.1628902 C7.15348293,23.4242177 6.58806777,24.5371879 6.19362703,25.7525374 C5.82905738,26.8789465 5.19208871,28.270986 5.02596538,29.3942471 C4.77964095,31.0590332 6.34192789,31.1516242 7.34090885,31.8730404 C8.88518878,32.9886296 10.0973539,33.6055502 11.7698448,34.6124112 C12.2652092,34.9105542 13.7590537,35.6653031 13.9289735,36.0129161 C14.2667567,36.7020577 13.3491633,37.6737341 13.1038407,38.2139364 C12.7157802,39.0681545 12.5134056,39.7938034 12.4578026,40.636646 C11.0548106,40.8591289 9.99126273,41.6969452 9.34883658,42.6416379 C8.28613239,44.205103 7.54913644,47.0976458 8.46860177,49.2978724 C8.54070895,49.4711498 8.90032205,49.8118847 8.95336762,50.0780177 C9.05800871,50.6020827 8.75645045,51.2988961 8.73770522,51.8562939 C8.64110533,54.716033 9.2199137,57.1800117 11.1385445,58.0424307 C11.9174338,61.1558691 14.7051736,62.1910365 17.3316412,63.7383643 C18.3134324,64.3166612 19.3956991,64.6862316 20.5134263,65.0989229 C24.5230069,66.5795852 30.674843,66.300754 34.0025825,63.7754007 C35.4136157,62.7045197 37.669107,60.4434475 38.4758637,58.8064387 C40.6066505,54.4845555 40.4553177,47.2616641 38.964927,42.0043473 C38.764556,41.2985393 38.4740182,40.2609911 38.068267,39.4131221 C37.7853749,38.8210688 36.9061156,37.6364331 37.0128922,37.1136908 C37.1228326,36.5732239 39.0176562,35.129598 39.4239346,34.7364831 C40.1555522,34.0282942 41.5454938,33.0883633 41.6580706,32.194728 C41.7790841,31.2436861 41.2404554,29.9426504 40.9675818,29.0249413 C40.0553667,25.9623221 39.1652979,23.1313656 38.1310148,20.4009629 L38.1310148,20.4009629 Z" id="path130" fill="#FFFFFF"></path>
            <path d="M32,26.4998364 C32,26.2238191 31.7761113,26 31.4998636,26 C31.2238887,26 31,26.2238191 31,26.4998364 C31,26.7758263 31.2238887,27 31.4998636,27 C31.7761113,27 32,26.7758263 32,26.4998364" id="path134" fill="#FFFFFF"></path>
            <path d="M32,24.4998364 C32,24.2238191 31.7761113,24 31.4998636,24 C31.2238887,24 31,24.2238191 31,24.4998364 C31,24.7758536 31.2238887,25 31.4998636,25 C31.7761113,25 32,24.7758536 32,24.4998364" id="path136" fill="#FFFFFF"></path>
        </g>
    </g>
</svg>