<?xml version="1.0" encoding="UTF-8"?>
<svg width="64px" height="64px" viewBox="0 0 64 64" version="1.1" xmlns="http://www.w3.org/2000/svg" xmlns:xlink="http://www.w3.org/1999/xlink">
    <!-- Generator: Sketch 55.2 (78181) - https://sketchapp.com -->
    <title>oo-logo</title>
    <desc>Created with Sketch.</desc>
    <g id="Page-1" stroke="none" stroke-width="1" fill="none" fill-rule="evenodd">
        <g id="oo-logo">
            <g id="Group-2">
                <rect id="Rectangle" x="3" y="3" width="58" height="58"></rect>
                <g id="white" transform="translate(11.700000, 10.250000)" fill="#51B2E9" fill-rule="nonzero">
                    <path d="M9.36863958,22.9442849 C11.3130742,10.1149649 14.0644876,6.79387143 22.1803887,6.79387143 C27.7754417,6.79387143 30.2886042,8.78173745 30.5114841,14.3701158 L39.15,14.3701158 C38.6504417,3.99169884 33.4396643,0 23.5714664,0 L0,0 L8.55397527,3.40891081 C4.27314488,6.82580502 1.93674912,13.0448718 0.576413428,22.4173807 C0.288401838,24.2451722 0.116387762,26.0906559 0.0614840989,27.9418919 L8.8229682,27.9418919 C8.89382147,26.2649554 9.07614619,24.595109 9.36863958,22.9442849 Z" id="Shape"></path>
                    <path d="M29.8480217,22.3910517 C27.9675886,34.7008811 24.9388583,38.262411 17.0626181,38.262411 C11.5600394,38.262411 9.10160433,36.8860119 8.72397638,31.4426256 L0,31.4426256 C0.655068898,41.5517717 6.33490157,44.95 16.8545374,44.95 C30.3797835,44.95 36.1675098,39.8021118 38.6567717,22.9587191 C38.9335289,21.3941158 39.0983639,19.8114479 39.15,18.222973 L30.3874902,18.222973 C30.2718898,19.7782262 30.0561024,20.8902323 29.8480217,22.3910517 Z" id="Shape"></path>
                </g>
            </g>
        </g>
    </g>
</svg>