<?xml version="1.0" encoding="UTF-8"?>
<svg width="75px" height="76px" viewBox="0 0 75 76" version="1.1" xmlns="http://www.w3.org/2000/svg" xmlns:xlink="http://www.w3.org/1999/xlink">
    <!-- Generator: Sketch 53.2 (72643) - https://sketchapp.com -->
    <title>performance-gray</title>
    <desc>Created with Sketch.</desc>
    <g id="performance-gray" stroke="none" stroke-width="1" fill="none" fill-rule="evenodd" transform="translate(0.000000, 1.000000)">
        <g id="performance-blue-w-copy" transform="translate(5.000000, 16.000000)" fill-rule="nonzero">
            <g id="Layer-1">
                <path d="M14.9716814,26.4387665 L3.30973451,18.8599119 L3.64070796,18.2202643 C6.81415929,11.9788546 11.9734513,6.82290749 18.2035398,3.64405286 L19.0212389,3.23700441 L23.6353982,16.2819383 L23.0707965,16.630837 C19.6442478,18.7048458 16.899115,21.8837004 15.3221239,25.5665198 L14.9716814,26.4387665 L14.9716814,26.4387665 Z M5.41238938,18.2977974 L14.2513274,24.0352423 C15.9256637,20.585022 18.4761062,17.677533 21.6884956,15.584141 L18.1256637,5.50484581 C12.7716814,8.43171806 8.31327434,12.9286344 5.41238938,18.2977974 L5.41238938,18.2977974 Z" id="svg_3" fill="#999999"></path>
                <path d="M40.5150442,15.2352423 L39.7557522,14.9638767 C35.5504425,13.4325991 30.8389381,13.4325991 26.6141593,14.9444934 L25.8548673,15.215859 L21.260177,2.26784141 L22.019469,1.99647577 C29.2035398,-0.562114537 37.1858407,-0.562114537 44.3504425,2.01585903 L45.1097345,2.28722467 L40.5150442,15.2352423 L40.5150442,15.2352423 Z M33.1557522,12.1920705 C35.3362832,12.1920705 37.4778761,12.5215859 39.5415929,13.1806167 L43.0460177,3.27577093 C36.699115,1.18237885 29.6902655,1.16299559 23.3238938,3.25638767 L26.8283186,13.1612335 C28.8725664,12.5215859 30.9946903,12.1920705 33.1557522,12.1920705 Z" id="svg_4" fill="#999999"></path>
                <path d="M51.3982301,26.5744493 L51.0283186,25.6828194 C50.8336283,25.2370044 50.6389381,24.7911894 50.4053097,24.3453744 L51.8460177,23.6088106 C51.9433628,23.8026432 52.040708,23.9770925 52.1185841,24.1709251 L60.9769912,18.4334802 C60.2176991,17.0185022 59.3415929,15.6422907 58.3876106,14.3436123 L59.6725664,13.3744493 C60.840708,14.9444934 61.8725664,16.6114537 62.7486726,18.3559471 L63.079646,18.9955947 L51.3982301,26.5744493 Z" id="svg_5" fill="#999999"></path>
                <path d="M44.7787611,17.677533 C44.2920354,17.3092511 43.7858407,16.9603524 43.279646,16.6502203 L42.7150442,16.3013216 L47.3486726,3.23700441 L48.1663717,3.66343612 C50.0353982,4.61321586 51.8265487,5.75682819 53.500885,7.05550661 L52.5079646,8.33480176 C51.1646018,7.28810573 49.7433628,6.35770925 48.2442478,5.54361233 L44.6814159,15.6229075 C45.0513274,15.8555066 45.4017699,16.107489 45.7522124,16.3788546 L44.7787611,17.677533 L44.7787611,17.677533 Z" id="svg_6" fill="#999999"></path>
                <path d="M15.1663717,40.4722467 L0.856637168,40.4722467 L0.720353982,39.8325991 C0.272566372,37.661674 0.0584070796,35.4325991 0.0584070796,33.2035242 C0.0584070796,29.4044053 0.700884956,25.6440529 1.98584071,22.077533 L2.33628319,21.10837 L14.2707965,28.861674 L14.1734513,29.4044053 C13.920354,30.6449339 13.8035398,31.9242291 13.8035398,33.2035242 C13.8035398,35.3162996 14.1539823,37.4096916 14.8159292,39.4061674 L15.1663717,40.4722467 L15.1663717,40.4722467 Z M2.18053097,38.8440529 L12.9469027,38.8440529 C12.440708,37.0026432 12.1681416,35.1030837 12.1681416,33.184141 C12.1681416,32.0017621 12.2654867,30.8 12.479646,29.6176211 L3.17345133,23.5700441 C2.18053097,26.6713656 1.67433628,29.90837 1.67433628,33.184141 C1.67433628,35.0837004 1.84955752,36.9832599 2.18053097,38.8440529 L2.18053097,38.8440529 Z" id="svg_7" fill="#999999"></path>
                <path d="M65.0654867,40.4722467 L50.7557522,40.4722467 L51.1256637,39.4061674 C51.8070796,37.4096916 52.1380531,35.3162996 52.1380531,33.2035242 C52.1380531,32.0017621 52.0212389,30.7806167 51.7876106,29.5594714 L51.6902655,29.0167401 L63.6442478,21.2440529 L63.9752212,22.2132159 C65.2212389,25.7409692 65.8442478,29.4431718 65.8442478,33.184141 C65.8442478,35.4132159 65.6300885,37.6422907 65.1823009,39.8132159 L65.0654867,40.4722467 L65.0654867,40.4722467 Z M52.9752212,38.8440529 L63.7415929,38.8440529 C64.0725664,36.9832599 64.2477876,35.0837004 64.2477876,33.184141 C64.2477876,29.9665198 63.7610619,26.7876652 62.7876106,23.7251101 L53.4619469,29.7726872 C53.6566372,30.9162996 53.7345133,32.0599119 53.7345133,33.184141 C53.7539823,35.1030837 53.500885,37.0026432 52.9752212,38.8440529 L52.9752212,38.8440529 Z" id="svg_8" fill="#999999"></path>
                <path d="M37.0106195,40.3227847 L35.7646018,39.2954719 C43.9221239,29.2937098 58.3292035,10.3174984 60.7238938,5.25846752 C56.7716814,8.32102259 43.7663717,23.343049 32.3575221,37.3377627 L31.1115044,36.3104499 C37.4,28.5959125 58.1539823,3.37829131 61.4831858,3.08754241 C61.7946903,3.06815915 62.0867257,3.14569219 62.300885,3.33952479 C63.079646,4.01793889 63.9557522,4.77388603 52.4690265,20.280494 C46.8619469,27.9174984 40.0477876,36.6011988 37.0106195,40.3227847 Z" id="svg_9" fill="#52B2E9"></path>
                <path d="M33.1557522,43.850538 C30.9362832,43.850538 29.1256637,42.0478948 29.1256637,39.8188199 C29.1256637,37.5897451 30.9362832,35.7871019 33.1557522,35.7871019 C35.3752212,35.7871019 37.1858407,37.5897451 37.1858407,39.8188199 C37.2053097,42.0478948 35.3946903,43.850538 33.1557522,43.850538 Z M33.1557522,37.3959125 C31.8123894,37.3959125 30.7415929,38.481375 30.7415929,39.8188199 C30.7415929,41.1562649 31.8318584,42.2417274 33.1557522,42.2417274 C34.479646,42.2417274 35.5699115,41.1562649 35.5699115,39.8188199 C35.5893805,38.481375 34.499115,37.3959125 33.1557522,37.3959125 L33.1557522,37.3959125 Z" id="svg_10" fill="#52B2E9"></path>
            </g>
        </g>
    </g>
</svg>