<?xml version="1.0" encoding="UTF-8"?>
<svg width="64px" height="64px" viewBox="0 0 64 64" version="1.1" xmlns="http://www.w3.org/2000/svg" xmlns:xlink="http://www.w3.org/1999/xlink">
    <!-- Generator: Sketch 55.2 (78181) - https://sketchapp.com -->
    <title>performance-white</title>
    <desc>Created with Sketch.</desc>
    <g id="Page-1" stroke="none" stroke-width="1" fill="none" fill-rule="evenodd">
        <g id="performance-white">
            <g id="gauge">
                <g id="Shape-2">
                    <rect id="Rectangle" x="3" y="3" width="58" height="58"></rect>
                    <path d="M32,10.25 C19.9878067,10.25 10.25,19.9878067 10.25,32 C10.25,37.7684587 12.5415113,43.3006563 16.6204275,47.3795725 C20.6993437,51.4584887 26.2315413,53.75 32,53.75 C37.7684587,53.75 43.3006563,51.4584887 47.3795725,47.3795725 C51.4584887,43.3006563 53.75,37.7684587 53.75,32 C53.75,26.2315413 51.4584887,20.6993437 47.3795725,16.6204275 C43.3006563,12.5415113 37.7684587,10.25 32,10.25 L32,10.25 Z M32,14.6 C41.6097546,14.6 49.4,22.3902454 49.4,32 C49.4,37.22 47.225,41.7875 43.5275,45.05 C40.4825,42.2225 36.35,40.7 32,40.7 C27.65,40.7 23.735,42.2225 20.4725,45.05 C16.775,41.7875 14.6,37.22 14.6,32 C14.6,22.3902454 22.3902454,14.6 32,14.6 L32,14.6 Z M36.35,18.71075 C35.5235,18.7325 34.7405,19.27625 34.3925,20.1245 L31.58675,27.14975 L31.36925,27.65 C29.825,27.93275 28.54175,28.955 27.9545,30.3905 C27.06275,32.63075 28.15025,35.15375 30.3905,36.0455 C32.63075,36.93725 35.15375,35.84975 36.0455,33.6095 C36.611,32.174 36.35,30.521 35.41475,29.303 L35.63225,28.7375 L38.438,21.75575 L38.45975,21.6905 C38.89475,20.58125 38.351,19.31975 37.24175,18.863 C36.959,18.75425 36.67625,18.71075 36.35,18.71075 L36.35,18.71075 Z M27.65,18.95 C26.4487807,18.95 25.475,19.9237807 25.475,21.125 C25.475,22.3262193 26.4487807,23.3 27.65,23.3 C28.8512193,23.3 29.825,22.3262193 29.825,21.125 C29.825,19.9237807 28.8512193,18.95 27.65,18.95 L27.65,18.95 Z M21.125,25.475 C19.9237807,25.475 18.95,26.4487807 18.95,27.65 C18.95,28.8512193 19.9237807,29.825 21.125,29.825 C22.3262193,29.825 23.3,28.8512193 23.3,27.65 C23.3,26.4487807 22.3262193,25.475 21.125,25.475 L21.125,25.475 Z M42.875,25.475 C41.6737807,25.475 40.7,26.4487807 40.7,27.65 C40.7,28.8512193 41.6737807,29.825 42.875,29.825 C44.0762193,29.825 45.05,28.8512193 45.05,27.65 C45.05,26.4487807 44.0762193,25.475 42.875,25.475 Z" id="Shape" fill="#51B2E9" fill-rule="nonzero"></path>
                </g>
            </g>
        </g>
    </g>
</svg>