<?xml version="1.0" encoding="UTF-8"?>
<svg width="64px" height="64px" viewBox="0 0 64 64" version="1.1" xmlns="http://www.w3.org/2000/svg" xmlns:xlink="http://www.w3.org/1999/xlink">
    <!-- Generator: Sketch 55.2 (78181) - https://sketchapp.com -->
    <title>root-cause-white</title>
    <desc>Created with Sketch.</desc>
    <g id="Page-1" stroke="none" stroke-width="1" fill="none" fill-rule="evenodd">
        <g id="root-cause-white">
            <g id="lightbulb-on">
                <rect id="Rectangle" x="3" y="3" width="58" height="58"></rect>
                <path d="M32,19.3454545 C38.9889125,19.3454545 44.6545455,25.0110875 44.6545455,32 C44.6545455,36.6821818 42.1025455,40.7738182 38.3272727,42.9672727 L38.3272727,46.7636364 C38.3272727,47.9284551 37.3830006,48.8727273 36.2181818,48.8727273 L27.7818182,48.8727273 C26.6169994,48.8727273 25.6727273,47.9284551 25.6727273,46.7636364 L25.6727273,42.9672727 C21.8974545,40.7738182 19.3454545,36.6821818 19.3454545,32 C19.3454545,25.0110875 25.0110875,19.3454545 32,19.3454545 L32,19.3454545 Z M36.2181818,50.9818182 L36.2181818,53.0909091 C36.2181818,54.2557278 35.2739097,55.2 34.1090909,55.2 L29.8909091,55.2 C28.7260903,55.2 27.7818182,54.2557278 27.7818182,53.0909091 L27.7818182,50.9818182 L36.2181818,50.9818182 L36.2181818,50.9818182 Z M48.8727273,29.8909091 L55.2,29.8909091 L55.2,34.1090909 L48.8727273,34.1090909 L48.8727273,29.8909091 L48.8727273,29.8909091 Z M8.8,29.8909091 L15.1272727,29.8909091 L15.1272727,34.1090909 L8.8,34.1090909 L8.8,29.8909091 L8.8,29.8909091 Z M34.1090909,8.8 L34.1090909,15.1272727 L29.8909091,15.1272727 L29.8909091,8.8 L34.1090909,8.8 L34.1090909,8.8 Z M17.0676364,14.0727273 L21.56,18.5861818 L18.5650909,21.56 L14.0727273,17.0887273 L17.0676364,14.0727273 L17.0676364,14.0727273 Z M42.44,18.5650909 L46.9112727,14.0727273 L49.9272727,17.0887273 L45.4349091,21.56 L42.44,18.5650909 Z" id="Shape" fill="#51B2E9" fill-rule="nonzero"></path>
            </g>
        </g>
    </g>
</svg>