<?xml version="1.0" encoding="UTF-8"?>
<svg width="75px" height="75px" viewBox="0 0 75 75" version="1.1" xmlns="http://www.w3.org/2000/svg" xmlns:xlink="http://www.w3.org/1999/xlink">
    <!-- Generator: Sketch 53.2 (72643) - https://sketchapp.com -->
    <title>root-cause-white</title>
    <desc>Created with Sketch.</desc>
    <g id="root-cause-white" stroke="none" stroke-width="1" fill="none" fill-rule="evenodd">
        <g id="root-cause-blue-w" transform="translate(12.000000, 5.000000)" fill-rule="nonzero">
            <g id="Layer-1">
                <path d="M18.7592453,42.6671642 C17.6603774,42.6671642 16.7969811,42.3567164 16.2083019,41.7164179 C15.109434,40.5328358 15.1879245,38.4955224 16.4437736,35.9537313 C17.6015094,33.5865672 19.6422642,31.0253731 22.1932075,28.6970149 C24.7441509,26.3880597 27.5109434,24.5835821 29.9833962,23.6328358 C32.6520755,22.6238806 34.7320755,22.7014925 35.8113208,23.8850746 C36.9101887,25.0686567 36.8316981,27.1059701 35.5758491,29.6477612 C34.4181132,32.0149254 32.3773585,34.5761194 29.8264151,36.9044776 C27.2754717,39.2134328 24.5086792,41.0179104 22.0362264,41.9686567 C20.8,42.4343284 19.7011321,42.6671642 18.7592453,42.6671642 L18.7592453,42.6671642 Z M33.2603774,24.2149254 C32.4950943,24.2149254 31.5335849,24.4283582 30.4543396,24.8358209 C28.1192453,25.7283582 25.509434,27.4358209 23.0762264,29.6477612 C20.6430189,31.8597015 18.7003774,34.3044776 17.6211321,36.5164179 C16.64,38.5149254 16.4633962,40.1059701 17.1698113,40.8432836 C17.8762264,41.6 19.4656604,41.561194 21.5849057,40.7656716 C23.92,39.8731343 26.5298113,38.1656716 28.9630189,35.9537313 C31.3962264,33.741791 33.3388679,31.2970149 34.4181132,29.0850746 C35.3992453,27.0865672 35.5758491,25.4955224 34.869434,24.758209 C34.5162264,24.4089552 33.9667925,24.2149254 33.2603774,24.2149254 Z" id="svg_4" fill="#52B2E9"></path>
                <path d="M33.2603774,42.6671642 C32.3184906,42.6671642 31.2196226,42.4343284 29.9833962,41.9686567 C27.5109434,41.0179104 24.7441509,39.2328358 22.1932075,36.9044776 C19.6422642,34.5761194 17.6015094,32.0149254 16.4437736,29.6477612 C15.1879245,27.1059701 15.109434,25.0492537 16.2083019,23.8850746 C17.3071698,22.7014925 19.3675472,22.6238806 22.0362264,23.6328358 C24.5086792,24.5835821 27.2754717,26.3686567 29.8264151,28.6970149 C32.3773585,31.0059701 34.4181132,33.5865672 35.5758491,35.9537313 C36.8316981,38.4955224 36.9101887,40.5522388 35.8113208,41.7164179 C35.2226415,42.3567164 34.3592453,42.6671642 33.2603774,42.6671642 L33.2603774,42.6671642 Z M18.7592453,24.2149254 C18.0528302,24.2149254 17.5033962,24.3895522 17.1698113,24.758209 C16.4633962,25.5149254 16.64,27.0865672 17.6211321,29.0850746 C18.72,31.2970149 20.6430189,33.741791 23.0762264,35.9537313 C25.509434,38.1656716 28.1388679,39.8731343 30.4543396,40.7656716 C32.5539623,41.561194 34.1630189,41.6 34.869434,40.8432836 C35.5758491,40.0865672 35.3992453,38.5149254 34.4181132,36.5164179 C33.3192453,34.3044776 31.3962264,31.8597015 28.9630189,29.6477612 C26.5298113,27.4358209 23.9003774,25.7283582 21.5849057,24.8358209 C20.4664151,24.4283582 19.5245283,24.2149254 18.7592453,24.2149254 L18.7592453,24.2149254 Z" id="svg_5" fill="#52B2E9"></path>
                <path d="M26,35.3522388 C24.4890566,35.3522388 23.2724528,34.1492537 23.2724528,32.6552239 C23.2724528,31.161194 24.4890566,29.958209 26,29.958209 C27.5109434,29.958209 28.7275472,31.161194 28.7275472,32.6552239 C28.7275472,34.1492537 27.5109434,35.3522388 26,35.3522388 Z M26,31.258209 C25.2150943,31.258209 24.5675472,31.8985075 24.5675472,32.6746269 C24.5675472,33.4507463 25.2150943,34.0910448 26,34.0910448 C26.7849057,34.0910448 27.4324528,33.4507463 27.4324528,32.6746269 C27.4324528,31.8791045 26.7849057,31.258209 26,31.258209 L26,31.258209 Z" id="svg_6" fill="#52B2E9"></path>
                <path d="M34.1433962,55.4925373 L17.8762264,55.4925373 C17.5230189,55.4925373 17.2286792,55.2014925 17.2286792,54.8522388 L17.2286792,48.9925373 C17.1109434,48.8373134 16.7184906,48.3910448 15.7177358,47.7119403 C11.0475472,44.5298507 8.26113208,39.1746269 8.26113208,33.3925373 C8.26113208,23.7104478 16.2279245,15.8328358 26.0196226,15.8328358 C35.8113208,15.8328358 43.7781132,23.7104478 43.7781132,33.3925373 C43.7781132,39.3492537 40.8543396,44.8791045 36.1645283,47.8089552 C34.6732075,48.7402985 34.7909434,50.4089552 34.7909434,50.4283582 L34.7909434,54.8328358 C34.7909434,55.2014925 34.4966038,55.4925373 34.1433962,55.4925373 L34.1433962,55.4925373 Z M18.5237736,54.2119403 L33.4958491,54.2119403 L33.4958491,50.5059701 C33.4958491,50.4671642 33.3192453,48.080597 35.4777358,46.741791 C39.794717,44.0447761 42.4830189,38.9223881 42.4830189,33.4119403 C42.4830189,24.4283582 35.1049057,17.1328358 26.0196226,17.1328358 C16.9343396,17.1328358 9.55622642,24.4283582 9.55622642,33.4119403 C9.55622642,38.7671642 12.1267925,43.7149254 16.4633962,46.6641791 C18.0724528,47.7701493 18.4256604,48.4104478 18.4845283,48.5850746 C18.5237736,48.6626866 18.5237736,48.7402985 18.5237736,48.8179104 L18.5237736,54.2119403 Z" id="svg_9" fill="#FFFFFF"></path>
                <path d="M33.9667925,60.2268657 L17.8566038,60.2268657 C17.5033962,60.2268657 17.2090566,59.9358209 17.2090566,59.5865672 C17.2090566,59.2373134 17.5033962,58.9462687 17.8566038,58.9462687 L33.9667925,58.9462687 C34.32,58.9462687 34.6143396,59.2373134 34.6143396,59.5865672 C34.6143396,59.9358209 34.32,60.2268657 33.9667925,60.2268657 Z" id="svg_10" fill="#FFFFFF"></path>
                <path d="M30.9841509,64.941791 L20.8392453,64.941791 C20.4860377,64.941791 20.1916981,64.6507463 20.1916981,64.3014925 C20.1916981,63.9522388 20.4860377,63.661194 20.8392453,63.661194 L30.9841509,63.661194 C31.3373585,63.661194 31.6316981,63.9522388 31.6316981,64.3014925 C31.6316981,64.6507463 31.3373585,64.941791 30.9841509,64.941791 Z" id="svg_11" fill="#FFFFFF"></path>
                <path d="M25.5879245,11.8940299 C25.234717,11.8940299 24.9403774,11.6029851 24.9403774,11.2537313 L24.9403774,0.795522388 C24.9403774,0.446268657 25.234717,0.155223881 25.5879245,0.155223881 C25.9411321,0.155223881 26.2354717,0.446268657 26.2354717,0.795522388 L26.2354717,11.2537313 C26.2354717,11.6029851 25.9411321,11.8940299 25.5879245,11.8940299 Z" id="svg_13" fill="#FFFFFF"></path>
                <path d="M8.20226415,17.7925373 C8.04528302,17.7925373 7.86867925,17.7343284 7.7509434,17.5985075 L0.274716981,10.2059701 C0.0196226415,9.95373134 0.0196226415,9.54626866 0.274716981,9.29402985 C0.529811321,9.04179104 0.941886792,9.04179104 1.19698113,9.29402985 L8.67320755,16.6865672 C8.92830189,16.938806 8.92830189,17.3462687 8.67320755,17.5985075 C8.53584906,17.7343284 8.37886792,17.7925373 8.20226415,17.7925373 L8.20226415,17.7925373 Z" id="svg_14" fill="#FFFFFF"></path>
                <path d="M43.7977358,17.7925373 C43.6211321,17.7925373 43.4641509,17.7343284 43.3464151,17.5985075 C43.0913208,17.3462687 43.0913208,16.938806 43.3464151,16.6865672 L50.8226415,9.29402985 C51.0777358,9.04179104 51.4898113,9.04179104 51.7449057,9.29402985 C52,9.54626866 52,9.95373134 51.7449057,10.2059701 L44.2686792,17.5985075 C44.1313208,17.7343284 43.954717,17.7925373 43.7977358,17.7925373 Z" id="svg_15" fill="#FFFFFF"></path>
            </g>
        </g>
    </g>
</svg>