<?xml version="1.0" encoding="UTF-8"?>
<svg width="75px" height="75px" viewBox="0 0 75 75" version="1.1" xmlns="http://www.w3.org/2000/svg" xmlns:xlink="http://www.w3.org/1999/xlink">
    <!-- Generator: Sketch 53.2 (72643) - https://sketchapp.com -->
    <title>scorecard-white</title>
    <desc>Created with Sketch.</desc>
    <g id="scorecard-white" stroke="none" stroke-width="1" fill="none" fill-rule="evenodd">
        <g id="scorecard-blue-w" transform="translate(2.000000, 8.000000)" fill-rule="nonzero">
            <g id="Layer-1">
                <path d="M57.8123324,57.1346154 L14.3420912,57.1346154 C14.013941,57.1346154 13.7436997,56.8653846 13.7436997,56.5384615 L13.7436997,0.634615385 C13.7436997,0.307692308 14.013941,0.0384615385 14.3420912,0.0384615385 L45.9410188,0.0384615385 C46.0954424,0.0384615385 46.249866,0.0961538462 46.3656836,0.211538462 L58.2176944,12.0192308 C58.3335121,12.1346154 58.3914209,12.2884615 58.3914209,12.4423077 L58.3914209,56.5384615 C58.3914209,56.8653846 58.1211796,57.1346154 57.8123324,57.1346154 L57.8123324,57.1346154 Z M14.9211796,55.9423077 L57.1946381,55.9423077 L57.1946381,12.6923077 L45.6900804,1.23076923 L14.9211796,1.23076923 L14.9211796,55.9423077 Z" id="svg_4" fill="#FFFFFF"></path>
                <path d="M21.3876676,15.4038462 C20.09437,15.4038462 18.8975871,14.5384615 18.5308311,13.25 L18.5308311,13.25 C18.0868633,11.6730769 19.0134048,10.0576923 20.5962466,9.61538462 C21.3490617,9.40384615 22.1597855,9.5 22.8546917,9.88461538 C23.5495979,10.2692308 24.0321716,10.9038462 24.244504,11.6730769 C24.4568365,12.4230769 24.3603217,13.2307692 23.9742627,13.9230769 C23.5882038,14.6153846 22.9512064,15.0961538 22.1790885,15.3076923 C21.9088472,15.3653846 21.6386059,15.4038462 21.3876676,15.4038462 L21.3876676,15.4038462 Z M19.6697051,12.9230769 C19.8048257,13.3846154 20.09437,13.75 20.4997319,13.9807692 C20.9050938,14.2115385 21.3876676,14.2692308 21.8509383,14.1346154 C22.3142091,14 22.6809651,13.7115385 22.9126005,13.3076923 C23.1442359,12.9038462 23.2021448,12.4230769 23.0670241,11.9615385 C22.9319035,11.5 22.6423592,11.1346154 22.2369973,10.9038462 C21.8316354,10.6730769 21.3490617,10.6153846 20.8857909,10.75 C19.9592493,11 19.3994638,11.9807692 19.6697051,12.9230769 L19.6697051,12.9230769 Z" id="svg_6" fill="#52B2E9"></path>
                <path d="M40.4203753,12.75 L28.5683646,12.75 C28.2402145,12.75 27.9699732,12.4807692 27.9699732,12.1538462 C27.9699732,11.8269231 28.2402145,11.5576923 28.5683646,11.5576923 L40.4203753,11.5576923 C40.7485255,11.5576923 41.0187668,11.8269231 41.0187668,12.1538462 C40.9994638,12.4807692 40.7485255,12.75 40.4203753,12.75 Z" id="svg_7" fill="#52B2E9"></path>
                <path d="M21.3876676,24.8461538 C20.09437,24.8461538 18.8975871,23.9807692 18.5308311,22.6923077 L18.5308311,22.6923077 C18.0868633,21.1153846 19.0134048,19.5 20.5962466,19.0576923 C21.3490617,18.8461538 22.1597855,18.9423077 22.8546917,19.3269231 C23.5495979,19.7115385 24.0321716,20.3461538 24.244504,21.1153846 C24.4568365,21.8653846 24.3603217,22.6730769 23.9742627,23.3653846 C23.5882038,24.0576923 22.9512064,24.5384615 22.1790885,24.75 C21.9088472,24.8076923 21.6386059,24.8461538 21.3876676,24.8461538 L21.3876676,24.8461538 Z M19.6697051,22.3653846 C19.8048257,22.8269231 20.09437,23.1923077 20.4997319,23.4230769 C20.9050938,23.6538462 21.3876676,23.7115385 21.8509383,23.5769231 C22.3142091,23.4423077 22.6809651,23.1538462 22.9126005,22.75 C23.1442359,22.3461538 23.2021448,21.8653846 23.0670241,21.4038462 C22.9319035,20.9423077 22.6423592,20.5769231 22.2369973,20.3461538 C21.8316354,20.1153846 21.3490617,20.0576923 20.8857909,20.1923077 C19.9592493,20.4423077 19.3994638,21.4230769 19.6697051,22.3653846 L19.6697051,22.3653846 Z" id="svg_9" fill="#52B2E9"></path>
                <path d="M52.2723861,22.4807692 L28.5683646,22.4807692 C28.2402145,22.4807692 27.9699732,22.2115385 27.9699732,21.8846154 C27.9699732,21.5576923 28.2402145,21.2884615 28.5683646,21.2884615 L52.2723861,21.2884615 C52.6005362,21.2884615 52.8707775,21.5576923 52.8707775,21.8846154 C52.8707775,22.2115385 52.6005362,22.4807692 52.2723861,22.4807692 Z" id="svg_10" fill="#52B2E9"></path>
                <path d="M52.2723861,37.4423077 L19.8627346,37.4423077 C19.5345845,37.4423077 19.2643432,37.1730769 19.2643432,36.8461538 L19.2643432,29.7692308 C19.2643432,29.4423077 19.5345845,29.1730769 19.8627346,29.1730769 L52.2723861,29.1730769 C52.6005362,29.1730769 52.8707775,29.4423077 52.8707775,29.7692308 L52.8707775,36.8461538 C52.8707775,37.1730769 52.6005362,37.4423077 52.2723861,37.4423077 Z M20.461126,36.2692308 L51.6739946,36.2692308 L51.6739946,30.3653846 L20.461126,30.3653846 L20.461126,36.2692308 Z" id="svg_11" fill="#52B2E9"></path>
                <path d="M52.2723861,44.5384615 L19.8627346,44.5384615 C19.5345845,44.5384615 19.2643432,44.2692308 19.2643432,43.9423077 L19.2643432,36.8653846 C19.2643432,36.5384615 19.5345845,36.2692308 19.8627346,36.2692308 L52.2723861,36.2692308 C52.6005362,36.2692308 52.8707775,36.5384615 52.8707775,36.8653846 L52.8707775,43.9423077 C52.8707775,44.2692308 52.6005362,44.5384615 52.2723861,44.5384615 Z M20.461126,43.3461538 L51.6739946,43.3461538 L51.6739946,37.4423077 L20.461126,37.4423077 L20.461126,43.3461538 Z" id="svg_12" fill="#52B2E9"></path>
                <path d="M52.2723861,51.6153846 L19.8627346,51.6153846 C19.5345845,51.6153846 19.2643432,51.3461538 19.2643432,51.0192308 L19.2643432,43.9423077 C19.2643432,43.6153846 19.5345845,43.3461538 19.8627346,43.3461538 L52.2723861,43.3461538 C52.6005362,43.3461538 52.8707775,43.6153846 52.8707775,43.9423077 L52.8707775,51.0192308 C52.8707775,51.3461538 52.6005362,51.6153846 52.2723861,51.6153846 Z M20.461126,50.4423077 L51.6739946,50.4423077 L51.6739946,44.5384615 L20.461126,44.5384615 L20.461126,50.4423077 Z" id="svg_13" fill="#52B2E9"></path>
                <path d="M57.8123324,13.0384615 L45.9410188,13.0384615 C45.6128686,13.0384615 45.3426273,12.7692308 45.3426273,12.4423077 L45.3426273,0.634615385 C45.3426273,0.403846154 45.477748,0.173076923 45.7093834,0.0961538462 C45.9410188,-1.17267307e-15 46.1919571,0.0576923077 46.3463807,0.230769231 L58.1983914,12.0384615 C58.372118,12.2115385 58.4107239,12.4615385 58.3335121,12.6730769 C58.2563003,12.8846154 58.0439678,13.0384615 57.8123324,13.0384615 L57.8123324,13.0384615 Z M46.5394102,11.8653846 L56.3646113,11.8653846 L46.5394102,2.07692308 L46.5394102,11.8653846 Z" id="svg_14" fill="#FFFFFF"></path>
                <path d="M66.5951743,46.25 C66.4600536,46.25 66.324933,46.2115385 66.2091153,46.1153846 C65.3018767,45.3269231 64.1630027,44.0769231 63.8927614,42.5384615 C63.8927614,42.5192308 63.8734584,42.4423077 63.8541555,42.3461538 C63.7383378,41.8461538 63.5067024,40.8076923 63.5067024,40.2115385 L63.5067024,33.9230769 L62.7345845,28.9038462 C62.7152815,28.7307692 62.6573727,28.6538462 62.6573727,28.6538462 L59.7233244,24.1153846 C59.3758713,24.25 58.8546917,24.5384615 58.6037534,25.1538462 C58.2756032,25.9230769 58.2756032,27.4230769 60.1479893,30.25 C60.5340483,30.9423077 60.1865952,33.9038462 59.8391421,36.2884615 C59.8005362,36.6153846 59.491689,36.8269231 59.1635389,36.7884615 C58.8353887,36.75 58.6230563,36.4423077 58.6616622,36.1153846 C58.9898123,33.9615385 59.2407507,31.3653846 59.124933,30.8461538 C57.4069705,28.25 56.8664879,26.1730769 57.5227882,24.6730769 C58.1983914,23.1538462 59.8198391,22.8653846 59.8970509,22.8653846 C60.1286863,22.8269231 60.3603217,22.9230769 60.4954424,23.1346154 L63.661126,28.0192308 C63.680429,28.0384615 63.8541555,28.2692308 63.9313673,28.75 L64.7034853,33.8269231 C64.7034853,33.8653846 64.7034853,33.8846154 64.7034853,33.9230769 L64.7034853,40.25 C64.7034853,40.7115385 64.9351206,41.7307692 65.0316354,42.1153846 C65.0702413,42.25 65.0895442,42.3461538 65.0895442,42.3653846 C65.2825737,43.5576923 66.2284182,44.5961538 67.0005362,45.2307692 C67.2514745,45.4423077 67.2707775,45.8076923 67.058445,46.0576923 C66.9233244,46.1923077 66.7495979,46.25 66.5951743,46.25 L66.5951743,46.25 Z" id="svg_17" fill="#FFFFFF"></path>
                <path d="M58.2369973,54.5961538 C58.0825737,54.5961538 57.9281501,54.5384615 57.8123324,54.4230769 C57.5806971,54.1923077 57.5806971,53.8076923 57.8123324,53.5961538 L67.1742627,44.4230769 C67.4058981,44.1923077 67.7726542,44.1923077 68.0042895,44.4230769 L71.8262735,48.1923077 C72.0579088,48.4230769 72.0579088,48.7884615 71.8262735,49.0192308 C71.5946381,49.25 71.227882,49.25 70.9962466,49.0192308 L67.5989276,45.6538462 L58.6616622,54.4230769 C58.5458445,54.5384615 58.3914209,54.5961538 58.2369973,54.5961538 L58.2369973,54.5961538 Z" id="svg_19" fill="#FFFFFF"></path>
                <path d="M62.6380697,59.9807692 C62.4836461,59.9807692 62.3292225,59.9230769 62.2134048,59.7884615 L57.7544236,55.0384615 C57.5227882,54.8076923 57.5420912,54.4230769 57.7737265,54.2115385 C58.0053619,53.9807692 58.3914209,54 58.6037534,54.2307692 L63.0627346,58.9807692 C63.29437,59.2115385 63.275067,59.5961538 63.0434316,59.8076923 C62.9276139,59.9230769 62.7731903,59.9807692 62.6380697,59.9807692 Z" id="svg_20" fill="#FFFFFF"></path>
                <path d="M5.68064789,46.25 C5.50692135,46.25 5.35249776,46.1730769 5.23668006,46.0384615 C5.02434762,45.7884615 5.04365057,45.4230769 5.29458891,45.2115385 C6.06670687,44.5576923 7.01255138,43.5384615 7.20558087,42.3461538 C7.20558087,42.3076923 7.22488382,42.2115385 7.26348972,42.0769231 C7.36000446,41.6923077 7.59163985,40.6730769 7.59163985,40.2115385 L7.59163985,33.8653846 C7.59163985,33.8269231 7.59163985,33.8076923 7.59163985,33.7692308 L8.36375781,28.6923077 C8.44096961,28.2115385 8.61469615,27.9615385 8.672605,27.8846154 L11.7996827,23.0576923 C11.9348034,22.8653846 12.1664388,22.75 12.3980742,22.7884615 C12.475286,22.8076923 14.0967337,23.0769231 14.7723369,24.5961538 C15.4286372,26.0961538 14.8881546,28.1730769 13.1701921,30.7692308 C13.0543744,31.2884615 13.3053128,33.8846154 13.6334629,36.0384615 C13.6720688,36.3653846 13.4597364,36.6538462 13.1315862,36.7115385 C12.8034361,36.75 12.5138919,36.5384615 12.455983,36.2115385 C12.1085299,33.8269231 11.7610768,30.8461538 12.1278329,30.2115385 C14.0388248,27.3461538 14.0195219,25.8461538 13.6913718,25.0769231 C13.4404334,24.5 12.9192538,24.1923077 12.5718007,24.0576923 L9.6184495,28.6153846 C9.59914655,28.6346154 9.56054065,28.7115385 9.52193476,28.9038462 L8.74981679,33.9230769 L8.74981679,40.2115385 C8.74981679,40.8076923 8.5181814,41.8461538 8.40236371,42.3461538 C8.38306076,42.4423077 8.36375781,42.5192308 8.36375781,42.5384615 C8.11281947,44.0769231 6.97394548,45.3461538 6.04740392,46.1153846 C5.95088918,46.2115385 5.81576854,46.25 5.68064789,46.25 L5.68064789,46.25 Z" id="svg_22" fill="#FFFFFF"></path>
                <path d="M13.8595174,54.5961538 C13.7050938,54.5961538 13.5506702,54.5384615 13.4348525,54.4230769 L4.49758713,45.6538462 L1.1002681,49.0192308 C0.868632708,49.25 0.501876676,49.25 0.270241287,49.0192308 C0.0386058981,48.7884615 0.0386058981,48.4038462 0.270241287,48.1923077 L4.0922252,44.4230769 C4.32386059,44.1923077 4.69061662,44.1923077 4.92225201,44.4230769 L14.2841823,53.5961538 C14.5158177,53.8269231 14.5158177,54.1923077 14.2841823,54.4230769 C14.1683646,54.5192308 14.013941,54.5961538 13.8595174,54.5961538 L13.8595174,54.5961538 Z" id="svg_24" fill="#FFFFFF"></path>
                <path d="M9.47774799,59.9807692 C9.3233244,59.9807692 9.18820375,59.9230769 9.07238606,59.8269231 C8.84075067,59.5961538 8.82144772,59.2307692 9.05308311,59 L13.5120643,54.25 C13.7436997,54.0192308 14.1104558,54 14.3420912,54.2307692 C14.5737265,54.4615385 14.5930295,54.8269231 14.3613941,55.0576923 L9.90241287,59.8076923 C9.78659517,59.9230769 9.63217158,59.9807692 9.47774799,59.9807692 L9.47774799,59.9807692 Z" id="svg_25" fill="#FFFFFF"></path>
                <path d="M57.8123324,57.1346154 C57.4841823,57.1346154 57.213941,56.8653846 57.213941,56.5384615 L57.213941,41.5769231 C57.213941,41.25 57.4841823,40.9807692 57.8123324,40.9807692 C58.1404826,40.9807692 58.4107239,41.25 58.4107239,41.5769231 L58.4107239,56.5384615 C58.3914209,56.8653846 58.1211796,57.1346154 57.8123324,57.1346154 Z" id="svg_26" fill="#FFFFFF"></path>
                <path d="M14.3420912,57.1346154 C14.013941,57.1346154 13.7436997,56.8653846 13.7436997,56.5384615 L13.7436997,41.5769231 C13.7436997,41.25 14.013941,40.9807692 14.3420912,40.9807692 C14.6702413,40.9807692 14.9404826,41.25 14.9404826,41.5769231 L14.9404826,56.5384615 C14.9211796,56.8653846 14.6702413,57.1346154 14.3420912,57.1346154 Z" id="svg_27" fill="#FFFFFF"></path>
            </g>
        </g>
    </g>
</svg>