<?xml version="1.0" encoding="UTF-8"?>
<svg width="75px" height="75px" viewBox="0 0 75 75" version="1.1" xmlns="http://www.w3.org/2000/svg" xmlns:xlink="http://www.w3.org/1999/xlink">
    <!-- Generator: Sketch 53.2 (72643) - https://sketchapp.com -->
    <title>settings-white</title>
    <desc>Created with Sketch.</desc>
    <g id="settings-white" stroke="none" stroke-width="1" fill="none" fill-rule="evenodd">
        <g id="settings-blue-w" transform="translate(4.000000, 11.000000)" fill-rule="nonzero">
            <g id="Layer-1">
                <path d="M37.6969014,54 C37.4478873,54 37.2180282,53.8417582 37.1222535,53.6043956 L35.7814085,50.2021978 C34.1915493,50.5186813 32.5442254,50.4791209 30.9543662,50.1230769 L29.4985915,53.4857143 C29.364507,53.8021978 29.0005634,53.9406593 28.6940845,53.8021978 L25.3802817,52.2791209 C25.2270423,52.2197802 25.1121127,52.0813187 25.0546479,51.9230769 C24.9971831,51.7648352 24.9971831,51.5868132 25.0738028,51.4285714 L26.5295775,48.0659341 C25.2078873,47.0967033 24.0969014,45.8307692 23.2349296,44.4065934 L19.8828169,45.6527473 C19.5571831,45.7714286 19.2123944,45.5934066 19.0974648,45.2769231 L17.8715493,41.7362637 C17.8140845,41.578022 17.8332394,41.4 17.8907042,41.2417582 C17.9673239,41.0835165 18.0822535,40.9648352 18.235493,40.9054945 L21.5876056,39.6593407 C21.3769014,38.1758242 21.4343662,36.6527473 21.7408451,35.1692308 L18.484507,33.6659341 C18.1780282,33.5274725 18.0439437,33.1516484 18.1780282,32.8351648 L19.6529577,29.4131868 C19.7104225,29.2549451 19.844507,29.1362637 19.9977465,29.0769231 C20.1509859,29.0175824 20.3233803,29.0175824 20.4766197,29.0967033 L23.7329577,30.6 C24.5757746,29.3736264 25.6292958,28.3252747 26.8552113,27.4747253 L25.5143662,24.0527473 C25.4569014,23.8945055 25.4569014,23.7164835 25.5143662,23.5582418 C25.571831,23.4 25.7059155,23.2813187 25.8591549,23.221978 L29.2304225,21.8175824 C29.5369014,21.6791209 29.9008451,21.8373626 30.0349296,22.1736264 L31.3757746,25.5758242 C32.9656338,25.2593407 34.6129577,25.2989011 36.2028169,25.6549451 L37.6585915,22.2923077 C37.7926761,21.9758242 38.1566197,21.8373626 38.4630986,21.9758242 L41.7769014,23.4989011 C41.9301408,23.5582418 42.0450704,23.6967033 42.1025352,23.8549451 C42.16,24.0131868 42.16,24.1912088 42.0833803,24.3494505 L40.6276056,27.7120879 C41.9492958,28.6813187 43.0602817,29.9274725 43.9030986,31.3714286 L47.2552113,30.1252747 C47.5808451,30.0065934 47.9256338,30.1846154 48.0405634,30.5010989 L49.2664789,34.021978 C49.3239437,34.1802198 49.3239437,34.3582418 49.2473239,34.5164835 C49.1707042,34.6747253 49.0557746,34.7934066 48.9025352,34.8527473 L45.5504225,36.0989011 C45.7611268,37.5824176 45.703662,39.1054945 45.3971831,40.589011 L48.6535211,42.0923077 C48.8067606,42.1516484 48.9216901,42.2901099 48.9791549,42.4483516 C49.0366197,42.6065934 49.0366197,42.7846154 48.96,42.9428571 L47.4659155,46.3648352 C47.331831,46.6813187 46.9678873,46.8197802 46.6614085,46.6813187 L43.4050704,45.178022 C42.5622535,46.4043956 41.4895775,47.4725275 40.2828169,48.3032967 L41.623662,51.7252747 C41.6811268,51.8835165 41.6811268,52.0615385 41.623662,52.2197802 C41.5661972,52.378022 41.4321127,52.4967033 41.2980282,52.556044 L37.9267606,53.9604396 C37.8692958,53.9802198 37.7735211,54 37.6969014,54 L37.6969014,54 Z M36.164507,48.8175824 C36.4135211,48.8175824 36.6433803,48.9758242 36.7391549,49.2131868 L38.0416901,52.5362637 L40.263662,51.6065934 L38.9611268,48.2835165 C38.8461972,47.9868132 38.9611268,47.6703297 39.2101408,47.4923077 C40.5892958,46.621978 41.7960563,45.4351648 42.6771831,44.0307692 C42.8495775,43.7736264 43.1752113,43.6747253 43.4433803,43.7934066 L46.6039437,45.2571429 L47.5808451,42.9824176 L44.4394366,41.5384615 C44.1712676,41.4197802 44.0180282,41.1032967 44.0946479,40.7868132 C44.5160563,39.1648352 44.5735211,37.443956 44.2670423,35.8021978 C44.2095775,35.4857143 44.3819718,35.189011 44.6692958,35.0901099 L47.9256338,33.8835165 L47.1019718,31.5494505 L43.8456338,32.756044 C43.5583099,32.8549451 43.251831,32.7362637 43.0985915,32.4593407 C42.2366197,30.8373626 41.0107042,29.4725275 39.5166197,28.4835165 C39.2676056,28.3054945 39.171831,27.9692308 39.2867606,27.6923077 L40.7042254,24.4285714 L38.5205634,23.4197802 L37.1030986,26.6835165 C36.988169,26.9604396 36.6816901,27.1186813 36.3752113,27.0395604 C34.6512676,26.5648352 32.8315493,26.5252747 31.1076056,26.9406593 C30.8202817,27.0197802 30.5138028,26.8417582 30.3988732,26.5648352 L29.096338,23.2417582 L26.8743662,24.1714286 L28.1769014,27.4945055 C28.291831,27.7912088 28.1769014,28.1076923 27.9278873,28.2857143 C26.5104225,29.1758242 25.3419718,30.3428571 24.4416901,31.7472527 C24.2692958,32.0043956 23.943662,32.1032967 23.675493,31.9846154 L20.5149296,30.5208791 L19.5380282,32.7956044 L22.6985915,34.2593407 C22.9667606,34.378022 23.12,34.6945055 23.0433803,35.010989 C22.6219718,36.632967 22.564507,38.3538462 22.8709859,39.9956044 C22.9284507,40.3120879 22.7560563,40.6087912 22.4687324,40.7076923 L19.2123944,41.9142857 L20.0360563,44.2483516 L23.2923944,43.0417582 C23.5797183,42.9428571 23.8861972,43.0615385 24.0394366,43.3384615 C24.9014085,44.9406593 26.1464789,46.3252747 27.6214085,47.3340659 C27.8704225,47.5120879 27.9661972,47.8483516 27.8512676,48.1252747 L26.4338028,51.389011 L28.6174648,52.3978022 L30.0349296,49.1340659 C30.1498592,48.8571429 30.456338,48.6989011 30.7628169,48.778022 C32.4867606,49.2527473 34.3064789,49.2923077 36.0304225,48.8769231 C36.0878873,48.8373626 36.1261972,48.8175824 36.164507,48.8175824 L36.164507,48.8175824 Z" id="svg_3" fill="#FFFFFF"></path>
                <path d="M33.5785915,43.2989011 C30.6861972,43.2989011 28.3301408,40.8659341 28.3301408,37.8791209 C28.3301408,34.8923077 30.6861972,32.4593407 33.5785915,32.4593407 C36.4709859,32.4593407 38.8270423,34.8923077 38.8270423,37.8791209 C38.8270423,40.8659341 36.4709859,43.2989011 33.5785915,43.2989011 L33.5785915,43.2989011 Z M33.5785915,33.7450549 C31.3566197,33.7450549 29.5560563,35.6043956 29.5560563,37.8989011 C29.5560563,40.1934066 31.3566197,42.0527473 33.5785915,42.0527473 C35.8005634,42.0527473 37.6011268,40.1934066 37.6011268,37.8989011 C37.6011268,35.6043956 35.8005634,33.7450549 33.5785915,33.7450549 Z" id="svg_4" fill="#FFFFFF"></path>
                <path d="M39.2867606,19.2263736 C38.9419718,19.2263736 38.6738028,18.9494505 38.6738028,18.5934066 L38.6738028,6.74505495 C38.6738028,6.38901099 38.9419718,6.11208791 39.2867606,6.11208791 C39.6315493,6.11208791 39.8997183,6.38901099 39.8997183,6.74505495 L39.8997183,18.5934066 C39.8997183,18.9494505 39.6315493,19.2263736 39.2867606,19.2263736 Z" id="svg_6" fill="#52B2E9"></path>
                <path d="M27.8129577,19.2263736 C27.468169,19.2263736 27.2,18.9494505 27.2,18.5934066 L27.2,6.74505495 C27.2,6.38901099 27.468169,6.11208791 27.8129577,6.11208791 C28.1577465,6.11208791 28.4259155,6.38901099 28.4259155,6.74505495 L28.4259155,18.5934066 C28.4259155,18.9494505 28.1385915,19.2263736 27.8129577,19.2263736 Z" id="svg_7" fill="#52B2E9"></path>
                <path d="M39.2867606,6.52747253 C37.5819718,6.52747253 36.2028169,5.1032967 36.2028169,3.34285714 C36.2028169,1.58241758 37.5819718,0.158241758 39.2867606,0.158241758 C40.9915493,0.158241758 42.3707042,1.58241758 42.3707042,3.34285714 C42.3707042,5.1032967 40.9915493,6.52747253 39.2867606,6.52747253 Z M39.2867606,1.44395604 C38.2715493,1.44395604 37.4478873,2.29450549 37.4478873,3.34285714 C37.4478873,4.39120879 38.2715493,5.24175824 39.2867606,5.24175824 C40.3019718,5.24175824 41.1256338,4.39120879 41.1256338,3.34285714 C41.1447887,2.29450549 40.3019718,1.44395604 39.2867606,1.44395604 Z" id="svg_8" fill="#52B2E9"></path>
                <path d="M45.8569014,27.7120879 C45.5121127,27.7120879 45.2439437,27.4351648 45.2439437,27.0791209 L45.2439437,10.1472527 C45.2439437,9.79120879 45.5121127,9.51428571 45.8569014,9.51428571 L55.7025352,9.51428571 C56.0473239,9.51428571 56.315493,9.79120879 56.315493,10.1472527 C56.315493,10.5032967 56.0473239,10.7802198 55.7025352,10.7802198 L46.4698592,10.7802198 L46.4698592,27.0791209 C46.4698592,27.4153846 46.1825352,27.7120879 45.8569014,27.7120879 Z" id="svg_10" fill="#52B2E9"></path>
                <path d="M51.0861972,38.3934066 C50.875493,38.3934066 50.6647887,38.2747253 50.5498592,38.0571429 C50.3966197,37.7406593 50.4923944,37.3648352 50.7988732,37.1868132 L55.9132394,34.2989011 L55.9132394,20.2747253 C55.9132394,19.9186813 56.1814085,19.6417582 56.5261972,19.6417582 L62.2726761,19.6417582 C62.6174648,19.6417582 62.8856338,19.9186813 62.8856338,20.2747253 C62.8856338,20.6307692 62.6174648,20.9076923 62.2726761,20.9076923 L57.1391549,20.9076923 L57.1391549,34.6747253 C57.1391549,34.9120879 57.0242254,35.1296703 56.8135211,35.2285714 L51.3735211,38.2945055 C51.2777465,38.3736264 51.1819718,38.3934066 51.0861972,38.3934066 Z" id="svg_11" fill="#52B2E9"></path>
                <path d="M58.1543662,13.3120879 C56.4495775,13.3120879 55.0704225,11.8879121 55.0704225,10.1274725 C55.0704225,8.36703297 56.4495775,6.94285714 58.1543662,6.94285714 C59.8591549,6.94285714 61.2383099,8.36703297 61.2383099,10.1274725 C61.2383099,11.8879121 59.8591549,13.3120879 58.1543662,13.3120879 Z M58.1543662,8.22857143 C57.1391549,8.22857143 56.315493,9.07912088 56.315493,10.1274725 C56.315493,11.1758242 57.1391549,12.0263736 58.1543662,12.0263736 C59.1695775,12.0263736 59.9932394,11.1758242 59.9932394,10.1274725 C59.9932394,9.07912088 59.1695775,8.22857143 58.1543662,8.22857143 Z" id="svg_12" fill="#52B2E9"></path>
                <path d="M64.724507,23.4593407 C63.0197183,23.4593407 61.6405634,22.0351648 61.6405634,20.2747253 C61.6405634,18.5142857 63.0197183,17.0901099 64.724507,17.0901099 C66.4292958,17.0901099 67.8084507,18.5142857 67.8084507,20.2747253 C67.8084507,22.0351648 66.4101408,23.4593407 64.724507,23.4593407 Z M64.724507,18.3956044 C63.7092958,18.3956044 62.8856338,19.2461538 62.8856338,20.2945055 C62.8856338,21.3428571 63.7092958,22.1934066 64.724507,22.1934066 C65.7397183,22.1934066 66.5633803,21.3428571 66.5633803,20.2945055 C66.5633803,19.2461538 65.7397183,18.3956044 64.724507,18.3956044 Z" id="svg_13" fill="#52B2E9"></path>
                <path d="M22.0664789,27.7120879 C21.7216901,27.7120879 21.4535211,27.4351648 21.4535211,27.0791209 L21.4535211,10.7802198 L12.2208451,10.7802198 C11.8760563,10.7802198 11.6078873,10.5032967 11.6078873,10.1472527 C11.6078873,9.79120879 11.8760563,9.51428571 12.2208451,9.51428571 L22.0664789,9.51428571 C22.4112676,9.51428571 22.6794366,9.79120879 22.6794366,10.1472527 L22.6794366,27.0791209 C22.6794366,27.4153846 22.4112676,27.7120879 22.0664789,27.7120879 L22.0664789,27.7120879 Z" id="svg_15" fill="#52B2E9"></path>
                <path d="M16.8371831,38.3934066 C16.7414085,38.3934066 16.6456338,38.3736264 16.5498592,38.3142857 L11.1098592,35.2483516 C10.9183099,35.1296703 10.7842254,34.9318681 10.7842254,34.6945055 L10.7842254,20.9274725 L5.65070423,20.9274725 C5.30591549,20.9274725 5.03774648,20.6505495 5.03774648,20.2945055 C5.03774648,19.9384615 5.30591549,19.6615385 5.65070423,19.6615385 L11.3971831,19.6615385 C11.7419718,19.6615385 12.0101408,19.9384615 12.0101408,20.2945055 L12.0101408,34.3186813 L17.124507,37.2065934 C17.4309859,37.3846154 17.5267606,37.7604396 17.3735211,38.0769231 C17.2585915,38.2747253 17.0478873,38.3934066 16.8371831,38.3934066 L16.8371831,38.3934066 Z" id="svg_16" fill="#52B2E9"></path>
                <path d="M9.76901408,13.3120879 C8.06422535,13.3120879 6.68507042,11.8879121 6.68507042,10.1274725 C6.68507042,8.36703297 8.06422535,6.94285714 9.76901408,6.94285714 C11.4738028,6.94285714 12.8529577,8.36703297 12.8529577,10.1274725 C12.8338028,11.8879121 11.4546479,13.3120879 9.76901408,13.3120879 Z M9.76901408,8.22857143 C8.75380282,8.22857143 7.93014085,9.07912088 7.93014085,10.1274725 C7.93014085,11.1758242 8.75380282,12.0263736 9.76901408,12.0263736 C10.7842254,12.0263736 11.6078873,11.1758242 11.6078873,10.1274725 C11.6078873,9.07912088 10.7842254,8.22857143 9.76901408,8.22857143 Z" id="svg_17" fill="#52B2E9"></path>
                <path d="M3.19887324,23.4593407 C1.49408451,23.4593407 0.114929577,22.0351648 0.114929577,20.2747253 C0.114929577,18.5142857 1.49408451,17.0901099 3.19887324,17.0901099 C4.90366197,17.0901099 6.2828169,18.5142857 6.2828169,20.2747253 C6.2828169,22.0351648 4.90366197,23.4593407 3.19887324,23.4593407 L3.19887324,23.4593407 Z M3.19887324,18.3956044 C2.18366197,18.3956044 1.36,19.2461538 1.36,20.2945055 C1.36,21.3428571 2.18366197,22.1934066 3.19887324,22.1934066 C4.21408451,22.1934066 5.03774648,21.3428571 5.03774648,20.2945055 C5.05690141,19.2461538 4.21408451,18.3956044 3.19887324,18.3956044 Z" id="svg_18" fill="#52B2E9"></path>
                <path d="M27.8129577,6.52747253 C26.108169,6.52747253 24.7290141,5.1032967 24.7290141,3.34285714 C24.7290141,1.58241758 26.108169,0.158241758 27.8129577,0.158241758 C29.5177465,0.158241758 30.8969014,1.58241758 30.8969014,3.34285714 C30.8969014,5.1032967 29.4985915,6.52747253 27.8129577,6.52747253 Z M27.8129577,1.44395604 C26.7977465,1.44395604 25.9740845,2.29450549 25.9740845,3.34285714 C25.9740845,4.39120879 26.7977465,5.24175824 27.8129577,5.24175824 C28.828169,5.24175824 29.651831,4.39120879 29.651831,3.34285714 C29.651831,2.29450549 28.828169,1.44395604 27.8129577,1.44395604 Z" id="svg_19" fill="#52B2E9"></path>
            </g>
        </g>
    </g>
</svg>