<?xml version="1.0" encoding="UTF-8"?>
<svg width="75px" height="76px" viewBox="0 0 75 76" version="1.1" xmlns="http://www.w3.org/2000/svg" xmlns:xlink="http://www.w3.org/1999/xlink">
    <!-- Generator: Sketch 53.2 (72643) - https://sketchapp.com -->
    <title>site-reliability-gray</title>
    <desc>Created with Sketch.</desc>
    <g id="site-reliability-gray" stroke="none" stroke-width="1" fill="none" fill-rule="evenodd" transform="translate(0.000000, 1.000000)">
        <g id="site-reliability-blue-w-copy" transform="translate(5.000000, 12.000000)" fill-rule="nonzero">
            <g id="Layer-1">
                <path d="M46.5483871,23.9940075 L40.2580645,23.9940075 C39.8129032,23.9940075 39.4645161,23.6434457 39.4645161,23.1955056 C39.4645161,22.7475655 39.8129032,22.3970037 40.2580645,22.3970037 L46.5483871,22.3970037 C46.9935484,22.3970037 47.3419355,22.0464419 47.3419355,21.5985019 L47.3419355,5.66741573 C47.3419355,5.21947566 46.9935484,4.86891386 46.5483871,4.86891386 L19.5870968,4.86891386 C19.1419355,4.86891386 18.7935484,5.21947566 18.7935484,5.66741573 L18.7935484,21.5985019 C18.7935484,22.0464419 19.1419355,22.3970037 19.5870968,22.3970037 L25.7806452,22.3970037 C26.2258065,22.3970037 26.5741935,22.7475655 26.5741935,23.1955056 C26.5741935,23.6434457 26.2258065,23.9940075 25.7806452,23.9940075 L19.5870968,23.9940075 C18.2709677,23.9940075 17.2064516,22.9228464 17.2064516,21.5985019 L17.2064516,5.66741573 C17.2064516,4.34307116 18.2709677,3.27191011 19.5870968,3.27191011 L46.5677419,3.27191011 C47.883871,3.27191011 48.9483871,4.34307116 48.9483871,5.66741573 L48.9483871,21.5985019 C48.9290323,22.9228464 47.8645161,23.9940075 46.5483871,23.9940075 L46.5483871,23.9940075 Z" id="svg_2" fill="#999999"></path>
                <path d="M64.4903226,30.9662921 C64.316129,30.9662921 64.1419355,30.9273408 63.9677419,30.8494382 L48.7354839,24.305618 C47.8258065,23.9161049 47.3612903,22.6501873 47.3612903,21.5985019 L47.3612903,5.66741573 C47.3612903,4.82996255 47.6516129,4.16779026 48.1548387,3.83670412 C48.5225806,3.60299625 48.9677419,3.56404494 49.3935484,3.7588015 L64.6258065,10.7700375 C65.516129,11.1790262 65.9806452,12.4254682 65.9806452,13.4576779 L65.9806452,28.9602996 C65.9806452,29.7782772 65.6903226,30.4404494 65.2064516,30.7520599 C64.9741935,30.9078652 64.7225806,30.9662921 64.4903226,30.9662921 L64.4903226,30.9662921 Z M48.9677419,5.33632959 C48.9483871,5.41423221 48.9290323,5.53108614 48.9290323,5.66741573 L48.9290323,21.5985019 C48.9290323,22.2411985 49.2,22.7670412 49.3548387,22.8449438 L64.3354839,29.2719101 C64.3548387,29.1940075 64.3741935,29.0771536 64.3741935,28.940824 L64.3741935,13.4382022 C64.3741935,12.77603 64.0645161,12.2696629 63.9290323,12.1917603 L48.9677419,5.33632959 L48.9677419,5.33632959 Z" id="svg_4" fill="#999999"></path>
                <path d="M55.6258065,23.3318352 C55.5096774,23.3318352 55.4129032,23.3123596 55.316129,23.2734082 L51.9870968,21.8127341 C51.6580645,21.6569288 51.4645161,21.306367 51.5225806,20.9363296 L53.1870968,11.3543071 C53.2451613,10.964794 53.5741935,10.6921348 53.9612903,10.6921348 C53.9612903,10.6921348 53.9612903,10.6921348 53.9612903,10.6921348 C54.3483871,10.6921348 54.6774194,10.9842697 54.7354839,11.3737828 L56.4,22.3970037 C56.4387097,22.6891386 56.3225806,22.9617978 56.1096774,23.1565543 C55.9741935,23.2734082 55.8,23.3318352 55.6258065,23.3318352 L55.6258065,23.3318352 Z M53.1870968,20.6052434 L54.6387097,21.2284644 L53.9225806,16.4374532 L53.1870968,20.6052434 Z" id="svg_5" fill="#999999"></path>
                <path d="M61.7032258,25.9805243 C61.5870968,25.9805243 61.4903226,25.9610487 61.3935484,25.9220974 L58.0451613,24.4614232 C57.6774194,24.305618 57.483871,23.8771536 57.6,23.4876404 L59.2645161,18.3850187 C59.3806452,18.0539326 59.6903226,17.8202247 60.0387097,17.8397004 C60.3870968,17.859176 60.6967742,18.0928839 60.7741935,18.4434457 L62.4387097,25.0067416 C62.516129,25.2988764 62.4193548,25.6104869 62.1870968,25.8052434 C62.0709677,25.9220974 61.8967742,25.9805243 61.7032258,25.9805243 Z M59.3419355,23.2928839 L60.5225806,23.8187266 L59.9225806,21.4816479 L59.3419355,23.2928839 Z" id="svg_6" fill="#999999"></path>
                <path d="M44.6322581,17.4501873 C44.5741935,17.4501873 44.4967742,17.4501873 44.4387097,17.4307116 C44.3806452,17.411236 44.0322581,17.3333333 43.7612903,17.1970037 C43.2774194,16.9632959 42.9870968,16.4764045 42.6967742,16.0089888 C42.4451613,15.5805243 42.1548387,15.1131086 41.8451613,15.0546816 C41.5354839,14.9962547 41.0129032,15.2689139 40.4129032,15.7558052 C40.1225806,16.0284644 39.5806452,16.1258427 39.0387097,16.0089888 C38.6129032,15.9116105 37.8387097,15.6 37.4129032,14.5483146 C37.2580645,14.1198502 36.8709677,13.4966292 36.6387097,13.3213483 C36.5612903,13.3797753 36.3677419,13.5745318 36.0387097,14.1782772 C35.8451613,14.528839 35.1483871,15.5805243 34.1419355,15.658427 C33.7548387,15.6973783 33.2129032,15.6 32.7096774,14.9962547 C32.2258065,14.5093633 31.6064516,13.22397 30.8322581,11.6074906 C30.6193548,11.1595506 30.4258065,10.7505618 30.2903226,10.5168539 C30.1548387,10.2441948 30.0580645,10.1662921 30.0193548,10.1468165 C30.0387097,10.1662921 29.9419355,10.2441948 29.8258065,10.458427 C27.716129,14.9183521 26.5935484,15.2104869 25.7806452,14.9183521 C25.6645161,14.8599251 25.5483871,14.8209738 25.4516129,14.7625468 C25.0645161,14.5483146 24.9483871,14.4898876 24.5612903,14.8794007 C24.5032258,14.9378277 24.3870968,15.1325843 24.3096774,15.2689139 C23.8451613,16.0089888 23.0709677,17.2749064 21.5612903,17.4307116 C21.116129,17.4696629 20.7290323,17.1580524 20.6903226,16.729588 C20.6516129,16.3011236 20.9612903,15.8921348 21.4064516,15.8531835 C22.083871,15.7752809 22.5096774,15.1715356 22.9741935,14.4314607 C23.1483871,14.1588015 23.283871,13.9445693 23.4387097,13.7692884 C24.6193548,12.5033708 25.7612903,13.1071161 26.2064516,13.3602996 C26.4967742,13.1265918 27.2516129,12.2307116 28.3741935,9.85468165 C28.3741935,9.85468165 28.4129032,9.77677903 28.4129032,9.77677903 C28.8,9.01722846 29.3806452,8.56928839 30.0580645,8.56928839 C30.0580645,8.56928839 30.0580645,8.56928839 30.0774194,8.56928839 C30.7548387,8.56928839 31.3548387,9.01722846 31.7225806,9.81573034 C31.8387097,10.0494382 32.0516129,10.458427 32.2645161,10.9453184 C32.7290323,11.9191011 33.5032258,13.5550562 33.8903226,13.9445693 C34.0064516,14.0808989 34.0451613,14.0808989 34.0451613,14.0808989 C34.1419355,14.0614232 34.4709677,13.7498127 34.6645161,13.4187266 C35.1096774,12.6007491 35.6903226,11.7243446 36.6774194,11.7243446 C38.0903226,11.7632959 38.9032258,13.9640449 38.9032258,13.9835206 C39.0967742,14.4509363 39.3870968,14.470412 39.5032258,14.470412 C40.5096774,13.6719101 41.3612903,13.3602996 42.1354839,13.4771536 C43.1612903,13.6524345 43.7032258,14.528839 44.0903226,15.1715356 C44.2064516,15.3857678 44.4,15.6973783 44.4967742,15.7558052 C44.5741935,15.7947566 44.7677419,15.8531835 44.8645161,15.8726592 C45.2903226,15.9895131 45.5419355,16.4179775 45.4451613,16.8464419 C45.3096774,17.1970037 44.9806452,17.4501873 44.6322581,17.4501873 L44.6322581,17.4501873 Z M39.4258065,14.5093633 C39.4064516,14.528839 39.3870968,14.528839 39.3677419,14.5483146 C39.3870968,14.5483146 39.4064516,14.528839 39.4258065,14.5093633 Z" id="svg_7" fill="#999999"></path>
                <path d="M1.62580645,30.9662921 C1.37419355,30.9662921 1.14193548,30.8883895 0.929032258,30.7520599 C0.44516129,30.4209738 0.15483871,29.7782772 0.15483871,28.9602996 L0.15483871,13.4576779 C0.15483871,12.4254682 0.619354839,11.1790262 1.50967742,10.7700375 L16.7419355,3.7588015 C17.1483871,3.56404494 17.6129032,3.60299625 17.9806452,3.83670412 C18.483871,4.16779026 18.7741935,4.82996255 18.7741935,5.66741573 L18.7741935,21.5985019 C18.7741935,22.6501873 18.3096774,23.9161049 17.4,24.305618 L2.16774194,30.8494382 C1.97419355,30.9273408 1.8,30.9662921 1.62580645,30.9662921 Z M17.1290323,5.33632959 L2.16774194,12.2307116 C2.03225806,12.3086142 1.74193548,12.8149813 1.74193548,13.4771536 L1.74193548,28.9797753 C1.74193548,29.1161049 1.76129032,29.2329588 1.78064516,29.3108614 L16.7612903,22.8838951 C16.8774194,22.8059925 17.1677419,22.2996255 17.1677419,21.6374532 L17.1677419,5.70636704 C17.1677419,5.53108614 17.1483871,5.41423221 17.1290323,5.33632959 L17.1290323,5.33632959 Z" id="svg_9" fill="#999999"></path>
                <path d="M8.76774194,23.8771536 C8.30322581,23.8771536 7.83870968,23.740824 7.41290323,23.4681648 C6.2516129,22.7086142 5.57419355,20.9558052 5.57419355,18.7745318 C5.57419355,15.3857678 7.16129032,12.0164794 9.21290323,11.0816479 C9.61935484,10.906367 10.083871,11.0816479 10.2580645,11.471161 C10.4322581,11.8801498 10.2580645,12.3475655 9.87096774,12.5228464 C8.57419355,13.1071161 7.18064516,15.7558052 7.18064516,18.7550562 C7.18064516,20.7026217 7.78064516,21.7737828 8.30322581,22.1243446 C8.57419355,22.3191011 8.88387097,22.3191011 9.23225806,22.1632959 C10.5290323,21.5985019 11.9225806,18.9692884 11.9225806,15.9310861 C11.9225806,15.4831461 12.2709677,15.1325843 12.716129,15.1325843 C13.1612903,15.1325843 13.5096774,15.4831461 13.5096774,15.9310861 C13.5096774,19.3588015 11.9032258,22.7280899 9.87096774,23.62397 C9.48387097,23.7992509 9.11612903,23.8771536 8.76774194,23.8771536 L8.76774194,23.8771536 Z" id="svg_10" fill="#999999"></path>
                <path d="M9.2516129,20.2157303 C9,20.2157303 8.76774194,20.1378277 8.55483871,20.0014981 C8.0516129,19.670412 7.76129032,18.988764 7.76129032,18.1318352 C7.76129032,17.0606742 8.24516129,15.7558052 9.17419355,15.3468165 C9.58064516,15.1715356 10.0451613,15.3468165 10.2193548,15.7558052 C10.3935484,16.164794 10.2193548,16.6322097 9.81290323,16.8074906 C9.67741935,16.8853933 9.3483871,17.4307116 9.3483871,18.1318352 C9.3483871,18.2292135 9.3483871,18.3071161 9.36774194,18.3850187 C9.6,18.0344569 10.0645161,17.917603 10.4322581,18.1513109 C10.8,18.3850187 10.9354839,18.8719101 10.7032258,19.2419476 C10.4516129,19.6509363 10.1612903,19.9430712 9.81290323,20.0794007 C9.61935484,20.176779 9.44516129,20.2157303 9.2516129,20.2157303 L9.2516129,20.2157303 Z" id="svg_11" fill="#999999"></path>
                <path d="M23.1870968,41.7558052 L21.6774194,41.2883895 C21.7741935,40.9962547 21.8709677,40.7041199 21.9677419,40.4314607 C22.083871,40.1393258 22.2193548,39.847191 22.3548387,39.5745318 C23.9806452,36.3026217 27.0967742,34.3550562 30.716129,34.3550562 L35.4774194,34.3550562 C39.0774194,34.3550562 42.2129032,36.3026217 43.8387097,39.5745318 C43.9741935,39.847191 44.1096774,40.1393258 44.2258065,40.4314607 C44.3419355,40.7041199 44.4387097,40.9962547 44.516129,41.2883895 L42.9870968,41.7363296 C42.9096774,41.4831461 42.8322581,41.2494382 42.7354839,41.0157303 C42.6387097,40.7625468 42.5225806,40.5093633 42.4064516,40.2756554 C41.0322581,37.5101124 38.516129,35.9325843 35.4774194,35.9325843 L30.716129,35.9325843 C27.6774194,35.9325843 25.1419355,37.5101124 23.7870968,40.2756554 C23.6709677,40.5093633 23.5548387,40.7625468 23.4580645,41.0157303 C23.3419355,41.2689139 23.2451613,41.5026217 23.1870968,41.7558052 L23.1870968,41.7558052 Z" id="svg_14" fill="#52B2E9"></path>
                <path d="M33.0774194,32.7580524 C29.7483871,32.7580524 27.5225806,30.1872659 27.5225806,26.3895131 C27.5225806,22.5722846 29.7483871,20.0209738 33.0774194,20.0209738 C36.4064516,20.0209738 38.6322581,22.5917603 38.6322581,26.3895131 C38.6322581,30.2067416 36.3870968,32.7580524 33.0774194,32.7580524 L33.0774194,32.7580524 Z M33.0774194,21.5985019 C30.1548387,21.5985019 29.1096774,24.1692884 29.1096774,26.3895131 C29.1096774,28.5902622 30.1548387,31.1805243 33.0774194,31.1805243 C36,31.1805243 37.0451613,28.6097378 37.0451613,26.3895131 C37.0451613,24.188764 36,21.5985019 33.0774194,21.5985019 L33.0774194,21.5985019 Z" id="svg_15" fill="#52B2E9"></path>
                <path d="M48.2861286,51.9026217 L46.6990318,51.9026217 L46.6990318,46.9558052 C46.6990318,43.9565543 44.279677,41.541573 41.2990318,41.541573 L25.1183866,41.541573 C22.1377415,41.541573 19.7183866,43.97603 19.7183866,46.9558052 L19.7183866,51.9026217 L18.1506447,51.9026217 L18.1506447,46.9558052 C18.1506447,43.0801498 21.2861286,39.9445693 25.1377415,39.9445693 L41.3183866,39.9445693 C45.1699995,39.9445693 48.3054834,43.0996255 48.3054834,46.9558052 L48.3054834,51.9026217 L48.2861286,51.9026217 Z" id="svg_16" fill="#999999"></path>
                <path d="M48.9290323,1.67490637 L17.1870968,1.67490637 C16.7419355,1.67490637 16.3935484,1.32434457 16.3935484,0.876404494 C16.3935484,0.428464419 16.7419355,0.0779026217 17.1870968,0.0779026217 L48.9290323,0.0779026217 C49.3741935,0.0779026217 49.7225806,0.428464419 49.7225806,0.876404494 C49.7225806,1.32434457 49.3741935,1.67490637 48.9290323,1.67490637 Z" id="svg_17" fill="#999999"></path>
            </g>
        </g>
    </g>
</svg>