<?xml version="1.0" encoding="UTF-8"?>
<svg width="64px" height="64px" viewBox="0 0 64 64" version="1.1" xmlns="http://www.w3.org/2000/svg" xmlns:xlink="http://www.w3.org/1999/xlink">
    <!-- Generator: Sketch 55.2 (78181) - https://sketchapp.com -->
    <title>trend-white</title>
    <desc>Created with Sketch.</desc>
    <defs>
        <path d="M45.9166667,7.25 L12.0833333,7.25 C9.425,7.25 7.25,9.425 7.25,12.0833333 L7.25,45.9166667 C7.25,48.575 9.425,50.75 12.0833333,50.75 L45.9166667,50.75 C48.575,50.75 50.75,48.575 50.75,45.9166667 L50.75,12.0833333 C50.75,9.425 48.575,7.25 45.9166667,7.25 Z M21.75,41.0833333 L16.9166667,41.0833333 L16.9166667,24.1666667 L21.75,24.1666667 L21.75,41.0833333 Z M31.4166667,41.0833333 L26.5833333,41.0833333 L26.5833333,16.9166667 L31.4166667,16.9166667 L31.4166667,41.0833333 Z M41.0833333,41.0833333 L36.25,41.0833333 L36.25,31.4166667 L41.0833333,31.4166667 L41.0833333,41.0833333 Z" id="path-1"></path>
    </defs>
    <g id="Page-1" stroke="none" stroke-width="1" fill="none" fill-rule="evenodd">
        <g id="trend-white">
            <g id="Group" transform="translate(-1.000000, 0.000000)">
                <g id="ic/assessment" transform="translate(3.000000, 3.000000)">
                    <g id="ic_assessment_24px">
                        <mask id="mask-2" fill="white">
                            <use xlink:href="#path-1"></use>
                        </mask>
                        <g id="Shape" fill-rule="nonzero"></g>
                        <g id="c/blue" mask="url(#mask-2)" fill="#51B2E9">
                            <rect id="Shape" x="0" y="0" width="58" height="58"></rect>
                        </g>
                    </g>
                </g>
            </g>
        </g>
    </g>
</svg>