<?xml version="1.0" encoding="UTF-8"?>
<svg width="75px" height="75px" viewBox="0 0 75 75" version="1.1" xmlns="http://www.w3.org/2000/svg" xmlns:xlink="http://www.w3.org/1999/xlink">
    <!-- Generator: Sketch 53.2 (72643) - https://sketchapp.com -->
    <title>trend-white</title>
    <desc>Created with Sketch.</desc>
    <g id="trend-white" stroke="none" stroke-width="1" fill="none" fill-rule="evenodd">
        <g id="trend-blue-w" transform="translate(5.000000, 8.000000)" fill-rule="nonzero">
            <g id="Layer-1">
                <path d="M45.4481744,58.8846906 L1.11435082,58.8846906 C0.559939059,58.8846906 0.101115529,58.4234528 0.101115529,57.8661238 L0.101115529,1.15309446 C0.101115529,0.595765472 0.559939059,0.134527687 1.11435082,0.134527687 L45.4481744,0.134527687 C46.0025861,0.134527687 46.4614096,0.595765472 46.4614096,1.15309446 L46.4614096,8.24462541 C46.4614096,8.8019544 46.0025861,9.26319218 45.4481744,9.26319218 C44.8937626,9.26319218 44.4349391,8.8019544 44.4349391,8.24462541 L44.4349391,2.17166124 L2.12758612,2.17166124 L2.12758612,56.8667752 L44.4540567,56.8667752 L44.4540567,23.4462541 C44.4540567,22.8889251 44.9128802,22.4276873 45.467292,22.4276873 C46.0217038,22.4276873 46.4805273,22.8889251 46.4805273,23.4462541 L46.4805273,57.885342 C46.4614096,58.442671 46.0025861,58.8846906 45.4481744,58.8846906 L45.4481744,58.8846906 Z" id="svg_2" fill="#FFFFFF"></path>
                <path d="M14.2099391,53.8302932 L6.142292,53.8302932 C5.58788024,53.8302932 5.12905671,53.3690554 5.12905671,52.8117264 L5.12905671,38.6286645 C5.12905671,36.9566775 6.48640965,35.5921824 8.14964494,35.5921824 L12.2025861,35.5921824 C13.8658214,35.5921824 15.2231744,36.9566775 15.2231744,38.6286645 L15.2231744,52.8117264 C15.2231744,53.3690554 14.7643508,53.8302932 14.2099391,53.8302932 Z M7.15552729,51.7931596 L13.1967038,51.7931596 L13.1967038,38.6286645 C13.1967038,38.0713355 12.7378802,37.6100977 12.1834685,37.6100977 L8.14964494,37.6100977 C7.59523318,37.6100977 7.13640965,38.0713355 7.13640965,38.6286645 L7.13640965,51.7931596 L7.15552729,51.7931596 L7.15552729,51.7931596 Z" id="svg_3" fill="#FFFFFF"></path>
                <path d="M27.1470588,53.8302932 L19.0794118,53.8302932 C18.525,53.8302932 18.0661765,53.3690554 18.0661765,52.8117264 L18.0661765,44.7016287 C18.0661765,43.0296417 19.4235294,41.6651466 21.0867647,41.6651466 L25.1205882,41.6651466 C26.7838235,41.6651466 28.1411765,43.0296417 28.1411765,44.7016287 L28.1411765,52.8117264 C28.1602941,53.3690554 27.7014706,53.8302932 27.1470588,53.8302932 L27.1470588,53.8302932 Z M20.0926471,51.7931596 L26.1338235,51.7931596 L26.1338235,44.7016287 C26.1338235,44.1442997 25.675,43.6830619 25.1205882,43.6830619 L21.0867647,43.6830619 C20.5323529,43.6830619 20.0735294,44.1442997 20.0735294,44.7016287 L20.0735294,51.7931596 L20.0926471,51.7931596 L20.0926471,51.7931596 Z" id="svg_4" fill="#FFFFFF"></path>
                <path d="M40.2426471,53.8302932 L32.175,53.8302932 C31.6205882,53.8302932 31.1617647,53.3690554 31.1617647,52.8117264 L31.1617647,31.5371336 C31.1617647,29.8651466 32.5191176,28.5006515 34.1823529,28.5006515 L38.2352941,28.5006515 C39.8985294,28.5006515 41.2558824,29.8651466 41.2558824,31.5371336 L41.2558824,52.8117264 C41.2558824,53.3690554 40.8161765,53.8302932 40.2426471,53.8302932 Z M33.2073529,51.7931596 L39.2485294,51.7931596 L39.2485294,31.5371336 C39.2485294,30.9798046 38.7897059,30.5185668 38.2352941,30.5185668 L34.2014706,30.5185668 C33.6470588,30.5185668 33.1882353,30.9798046 33.1882353,31.5371336 L33.1882353,51.7931596 L33.2073529,51.7931596 L33.2073529,51.7931596 Z" id="svg_5" fill="#FFFFFF"></path>
                <path d="M22.1819979,33.1514658 C22.1628802,33.1514658 22.1628802,33.1514658 22.1437626,33.1514658 C21.8378802,33.1322476 21.5319979,32.9785016 21.3599391,32.7286645 L17.3452332,26.9631922 L14.8981744,29.2693811 C14.6878802,29.4807818 14.3819979,29.576873 14.0952332,29.5384365 C13.8084685,29.5 13.5408214,29.3462541 13.3687626,29.0964169 L9.94670376,23.9459283 L5.75993906,27.3091205 C5.32023318,27.6550489 4.68935082,27.5973941 4.34523318,27.1553746 C4.00111553,26.713355 4.05846847,26.0791531 4.49817435,25.7332248 L9.54523318,21.6781759 C9.77464494,21.5052117 10.0614096,21.4283388 10.3290567,21.4667752 C10.6158214,21.5052117 10.8643508,21.6781759 11.017292,21.9087948 L14.3819979,27.0016287 L16.8099391,24.714658 C17.0202332,24.5224756 17.3069979,24.4071661 17.5937626,24.4456026 C17.8805273,24.4840391 18.1481744,24.637785 18.3202332,24.8684039 L22.2393508,30.4993485 L33.5761155,16.7583062 C33.7481744,16.5469055 34.0158214,16.4123779 34.3025861,16.3931596 C34.5893508,16.3931596 34.8569979,16.4892508 35.067292,16.6814332 L39.3496449,20.9863192 L47.7040567,11.6462541 C47.8952332,11.4348534 48.1437626,11.319544 48.4687626,11.319544 C48.7555273,11.319544 49.042292,11.4540717 49.2143508,11.6654723 L54.5099391,17.8729642 L62.8069979,8.60977199 C63.1893508,8.18697068 63.8202332,8.16775244 64.2217038,8.53289902 C64.642292,8.8980456 64.6614096,9.5514658 64.2981744,9.95504886 L55.2364096,20.0830619 C55.0452332,20.2944625 54.7584685,20.3905537 54.4717038,20.409772 C54.1849391,20.409772 53.8981744,20.2752443 53.7261155,20.0638436 L48.4496449,13.8371336 L40.1525861,23.1003257 C39.9614096,23.3117264 39.7128802,23.4270358 39.4261155,23.4270358 C39.1584685,23.4462541 38.8908214,23.3309446 38.6805273,23.1387622 L34.417292,18.8530945 L22.9467038,32.767101 C22.7746449,33.0169381 22.4878802,33.1514658 22.1819979,33.1514658 L22.1819979,33.1514658 Z" id="svg_7" fill="#52B2E9"></path>
                <path d="M63.9676471,13.6641694 C63.4132353,13.6641694 62.9544118,13.2029316 62.9544118,12.6456026 L62.9544118,9.60912052 L59.9338235,9.60912052 C59.3794118,9.60912052 58.9205882,9.14788274 58.9205882,8.59055375 C58.9205882,8.03322476 59.3794118,7.57198697 59.9338235,7.57198697 L63.9676471,7.57198697 C64.5220588,7.57198697 64.9808824,8.03322476 64.9808824,8.59055375 L64.9808824,12.6456026 C64.9617647,13.2221498 64.5220588,13.6641694 63.9676471,13.6641694 L63.9676471,13.6641694 Z" id="svg_8" fill="#52B2E9"></path>
                <path d="M30.3261155,7.22605863 L16.217292,7.22605863 C15.6628802,7.22605863 15.2040567,6.76482085 15.2040567,6.20749186 C15.2040567,5.65016287 15.6628802,5.18892508 16.217292,5.18892508 L30.3261155,5.18892508 C30.8805273,5.18892508 31.3393508,5.65016287 31.3393508,6.20749186 C31.3393508,6.76482085 30.8996449,7.22605863 30.3261155,7.22605863 Z" id="svg_9" fill="#FFFFFF"></path>
                <path d="M36.3864096,12.2996743 L10.1952332,12.2996743 C9.64082141,12.2996743 9.18199788,11.8384365 9.18199788,11.2811075 C9.18199788,10.7237785 9.64082141,10.2625407 10.1952332,10.2625407 L36.3864096,10.2625407 C36.9408214,10.2625407 37.3996449,10.7237785 37.3996449,11.2811075 C37.3805273,11.8384365 36.9408214,12.2996743 36.3864096,12.2996743 Z" id="svg_10" fill="#FFFFFF"></path>
            </g>
        </g>
    </g>
</svg>